<?xml version="1.0" encoding="UTF-8"?> <svg xmlns="http://www.w3.org/2000/svg" width="468.41mm" height="431.03mm" viewBox="0 0 1327.78 1221.82"><defs><style> .cls-1 { fill: #60c3ab; } .cls-2 { fill: #f26865; } </style></defs><title>Element 2</title><g id="Ebene_2" data-name="Ebene 2"><g id="Layer_1" data-name="Layer 1"><g><path class="cls-1" d="M791.51,308.22l2.09-1.13.17-.07,6.65-2.84.14-.06.78-.26.15-.9-13.28,1.87Z"></path><path class="cls-2" d="M366.49,939.72h.14L398,935.07a1,1,0,0,0,.34-1.86L370,917.55a1,1,0,0,0-.62-.11l-23.53,3.37-2.12,2.32,25.6-3.67,25.42,14.07-28.12,4.16-24-13.32-1.39,1.52L366,939.6A1,1,0,0,0,366.49,939.72Z"></path><path class="cls-2" d="M419.59,931.18h.15l31.37-4.64a1,1,0,0,0,.34-1.86L423.15,909a1,1,0,0,0-.63-.12L391,913.41a1,1,0,0,0-.34,1.87l28.49,15.78A1,1,0,0,0,419.59,931.18Zm2.88-20.26L447.89,925l-28.11,4.15L394.19,915Z"></path><path class="cls-1" d="M444.77,907.78l28.48,15.78a1,1,0,0,0,.49.12h.14L505.26,919a1,1,0,0,0,.33-1.86L477.3,901.51a1,1,0,0,0-.63-.12l-31.56,4.52a1,1,0,0,0-.34,1.87Zm31.85-4.36L502,917.49l-28.12,4.15-25.58-14.17Z"></path><path class="cls-1" d="M498.92,900.28l28.48,15.78a1,1,0,0,0,.48.12H528l31.37-4.64a1,1,0,0,0,.84-.81,1,1,0,0,0-.5-1.05L531.44,894a1,1,0,0,0-.62-.12l-31.56,4.52a1,1,0,0,0-.84.81A1,1,0,0,0,498.92,900.28Zm31.85-4.36L556.18,910l-28.11,4.15L502.49,900Z"></path><path class="cls-1" d="M548.34,893l28.48,15.78a1,1,0,0,0,.49.12h.14l31.37-4.64a1,1,0,0,0,.34-1.86l-28.29-15.66a1,1,0,0,0-.63-.12l-31.56,4.52a1,1,0,0,0-.34,1.87Zm31.85-4.36,25.42,14.07-28.12,4.15-25.58-14.17Z"></path><path class="cls-2" d="M597.76,885.76l28.48,15.78a1,1,0,0,0,.49.12h.14L658.25,897a1,1,0,0,0,.33-1.86l-16.69-9.24,0,1a1.94,1.94,0,0,1-.36,1.12L655,895.47l-28.11,4.15-25.59-14.17,28.28-4.05,8.28,4.58,0-2.27-7.63-4.22a1,1,0,0,0-.63-.12l-31.56,4.52a1,1,0,0,0-.34,1.87Z"></path><path class="cls-2" d="M647.18,878.5l28.49,15.78a1,1,0,0,0,.48.12h.15l31.37-4.64a1,1,0,0,0,.34-1.86l-28.3-15.66a1.05,1.05,0,0,0-.63-.12l-31.56,4.52a1,1,0,0,0-.84.81A1,1,0,0,0,647.18,878.5ZM679,874.14l25.41,14.07-28.11,4.15-25.58-14.17Z"></path><path class="cls-2" d="M448.51,961.62a1,1,0,0,0-.5-1l-28.3-15.66a1,1,0,0,0-.63-.12l-31.55,4.52a1,1,0,0,0-.85.81,1,1,0,0,0,.5,1.06L415.67,967a.91.91,0,0,0,.48.13h.15l31.37-4.64A1,1,0,0,0,448.51,961.62ZM416.34,965l-25.58-14.17,28.28-4,25.41,14.06Z"></path><path class="cls-2" d="M501.61,953.08a1,1,0,0,0-.5-1.06l-28.29-15.66a1.06,1.06,0,0,0-.63-.11l-31.56,4.52a1,1,0,0,0-.34,1.86l28.48,15.78a1.05,1.05,0,0,0,.49.13h.14l31.37-4.64A1,1,0,0,0,501.61,953.08Zm-32.17,3.42-25.58-14.17,28.28-4.05,25.42,14.06Z"></path><path class="cls-2" d="M555.26,944.52,527,928.86a1,1,0,0,0-.62-.11l-31.56,4.52a1,1,0,0,0-.84.81,1,1,0,0,0,.49,1l28.49,15.78a1,1,0,0,0,.48.13l.15,0,31.37-4.63a1,1,0,0,0,.34-1.87ZM523.59,949,498,934.82l28.28-4.05,25.41,14.07Z"></path><path class="cls-2" d="M580.48,921.25l-31.56,4.52a1,1,0,0,0-.34,1.86l28.49,15.78a1,1,0,0,0,.48.13l.15,0,31.37-4.63a1,1,0,0,0,.34-1.87l-28.3-15.66A1,1,0,0,0,580.48,921.25Zm-2.74,20.25-25.59-14.18,28.28-4.05,25.42,14.07Z"></path><path class="cls-2" d="M659.33,930.82a1,1,0,0,0-.5-1.06l-28.3-15.66a1,1,0,0,0-.62-.11l-31.56,4.52a1,1,0,0,0-.85.81,1,1,0,0,0,.5,1l28.49,15.78a1,1,0,0,0,.48.13h.15l10-1.49,0-2-10,1.48-25.58-14.17L629.86,916l25.41,14.06-14.09,2.09,0,2,17.34-2.56A1,1,0,0,0,659.33,930.82Z"></path><path class="cls-2" d="M708.25,922.5,680,906.84a1,1,0,0,0-.62-.11l-31.56,4.52a1,1,0,0,0-.34,1.86l28.48,15.78a1,1,0,0,0,.48.13h.15l31.37-4.64a1,1,0,0,0,.34-1.87ZM676.58,927,651,912.81l28.28-4,25.42,14.06Z"></path><path class="cls-2" d="M758.17,916.3a1,1,0,0,0-.5-1.06l-28.29-15.66a1,1,0,0,0-.63-.11L697.19,904a1,1,0,0,0-.84.81,1,1,0,0,0,.5,1.05l28.48,15.78a1.05,1.05,0,0,0,.49.13H726l31.38-4.64A1,1,0,0,0,758.17,916.3ZM726,919.72l-25.59-14.17,28.28-4,25.42,14.06Z"></path><path class="cls-1" d="M501.61,988.69a1,1,0,0,0-.5-1.05L472.82,972a1,1,0,0,0-.63-.12l-31.56,4.52a1,1,0,0,0-.34,1.87L468.77,994a1,1,0,0,0,.49.12h.14l31.37-4.64A1,1,0,0,0,501.61,988.69Zm-32.17,3.42-25.58-14.17,28.28-4.05L497.56,988Z"></path><path class="cls-2" d="M525.29,963.32l-31.56,4.52a1,1,0,0,0-.34,1.87l28.49,15.77a.89.89,0,0,0,.48.13h.15L553.88,981a1,1,0,0,0,.34-1.86l-28.3-15.66A1,1,0,0,0,525.29,963.32Zm-2.74,20.25L497,969.4l28.28-4,25.41,14.06Z"></path><path class="cls-2" d="M579.44,955.82l-31.56,4.52a1,1,0,0,0-.34,1.87L576,978a1,1,0,0,0,.49.13h.14l20.56-3v-2l-20.51,3L551.11,961.9l28.28-4,17.83,9.86v-2.28l-17.16-9.49A1,1,0,0,0,579.44,955.82Z"></path><path class="cls-1" d="M810.78,942.32l-28.3-15.66a1,1,0,0,0-.63-.12l-31.55,4.52a1,1,0,0,0-.85.81,1,1,0,0,0,.5,1.06l28.49,15.78a1,1,0,0,0,.48.12h.15l31.37-4.64a1,1,0,0,0,.34-1.86Zm-31.67,4.47-25.58-14.17,28.28-4,25.41,14.07Z"></path><path class="cls-1" d="M700.53,871.06,729,886.83a1,1,0,0,0,.49.13h.15L761,882.31a1,1,0,0,0,.34-1.86l-28.3-15.66a1,1,0,0,0-.63-.12l-31.56,4.52a1,1,0,0,0-.34,1.87Zm31.85-4.36,25.42,14.07-28.11,4.15L704.1,870.75Z"></path><path class="cls-1" d="M753.63,862.51l28.49,15.78a1,1,0,0,0,.48.13h.15l31.37-4.64a1,1,0,0,0,.34-1.87l-28.3-15.66a1,1,0,0,0-.62-.11L754,860.65a1,1,0,0,0-.84.81A1,1,0,0,0,753.63,862.51Zm31.86-4.35,25.41,14.06-28.11,4.16-25.58-14.17Z"></path><path class="cls-1" d="M807.78,855l28.49,15.78a1,1,0,0,0,.48.13h.15l31.37-4.64a1,1,0,0,0,.34-1.87l-28.3-15.66a1,1,0,0,0-.63-.11l-31.56,4.52a1,1,0,0,0-.84.81A1,1,0,0,0,807.78,855Zm31.86-4.35,25.41,14.06-28.11,4.16-25.58-14.17Z"></path><path class="cls-2" d="M989.74,848.9h.15l31.37-4.64a1,1,0,0,0,.84-.81,1,1,0,0,0-.5-1.06l-23.87-13.2-3.29.46L1018,842.7l-28.11,4.16-23.88-13.23-3.29.46,26.5,14.68A.91.91,0,0,0,989.74,848.9Z"></path><path class="cls-2" d="M782.1,892l-31.56,4.52a1,1,0,0,0-.34,1.86l28.48,15.78a1.05,1.05,0,0,0,.49.13l.14,0,31.37-4.63a1,1,0,0,0,.34-1.87l-28.3-15.66A1,1,0,0,0,782.1,892Zm-2.75,20.25L753.77,898.1l28.28-4.05,25.42,14.07Z"></path><path class="cls-2" d="M831.79,905.65a1,1,0,0,0,.48.12h.15l31.37-4.64a1,1,0,0,0,.34-1.86l-28.3-15.66a1,1,0,0,0-.63-.12L803.64,888a1,1,0,0,0-.34,1.87Zm3.36-20.14,25.42,14.07-28.11,4.15-25.59-14.17Z"></path><path class="cls-2" d="M857,881.31a1,1,0,0,0,.5,1.06l28.48,15.78a1,1,0,0,0,.49.12h.14l31.38-4.64a1,1,0,0,0,.33-1.86L890,876.1a1,1,0,0,0-.63-.12l-31.56,4.52A1,1,0,0,0,857,881.31ZM889.3,878l25.42,14.07-28.11,4.15L861,882.06Z"></path><path class="cls-2" d="M911.6,874.87l28.48,15.78a1,1,0,0,0,.48.12h.15l31.37-4.64a1,1,0,0,0,.84-.81,1,1,0,0,0-.5-1l-28.3-15.66a1,1,0,0,0-.62-.12L911.94,873a1,1,0,0,0-.84.81A1,1,0,0,0,911.6,874.87Zm31.85-4.36,25.41,14.07-28.11,4.15-25.58-14.17Z"></path><path class="cls-2" d="M961,867.61l28.48,15.78a1,1,0,0,0,.49.12h.14l31.37-4.64a1,1,0,0,0,.34-1.86l-28.29-15.66a1,1,0,0,0-.63-.12l-31.56,4.52a1,1,0,0,0-.84.81A1,1,0,0,0,961,867.61Zm31.85-4.36,25.42,14.07-28.12,4.15L964.59,867.3Z"></path><path class="cls-2" d="M1010.44,860.35l28.48,15.78a1,1,0,0,0,.49.12h.14l31.38-4.64a1,1,0,0,0,.83-.81,1,1,0,0,0-.49-1L1043,854.08a1.05,1.05,0,0,0-.63-.12l-31.56,4.52a1,1,0,0,0-.84.81A1,1,0,0,0,1010.44,860.35Zm31.85-4.36,25.42,14.07-28.11,4.15L1014,860Z"></path><path class="cls-1" d="M864.13,934.87l-28.3-15.66a1,1,0,0,0-.63-.11l-31.56,4.52a1,1,0,0,0-.84.81,1,1,0,0,0,.5,1.05l28.49,15.78a1,1,0,0,0,.48.13h.15l31.37-4.64a1,1,0,0,0,.84-.81A1,1,0,0,0,864.13,934.87Zm-31.67,4.48-25.59-14.17,28.28-4,25.42,14.06Z"></path><path class="cls-1" d="M917.23,926.33l-28.3-15.66a1,1,0,0,0-.62-.11l-31.56,4.52a1,1,0,0,0-.84.81,1,1,0,0,0,.5,1.05l28.48,15.78a1,1,0,0,0,.48.13l.15,0,31.37-4.63a1,1,0,0,0,.84-.81A1,1,0,0,0,917.23,926.33Zm-31.67,4.48L860,916.63l28.28-4,25.42,14.07Z"></path><path class="cls-2" d="M971.38,918.83l-28.3-15.66a1,1,0,0,0-.63-.11l-31.55,4.52a1,1,0,0,0-.85.81,1,1,0,0,0,.5,1.05L939,925.22a1,1,0,0,0,.48.12h.15L971,920.7a1,1,0,0,0,.34-1.87Zm-31.67,4.48-25.58-14.18,28.28-4,25.41,14.07Z"></path><path class="cls-2" d="M1025.53,911.33l-28.3-15.66a1,1,0,0,0-.63-.11L965,900.08a1,1,0,0,0-.84.81,1,1,0,0,0,.5,1.05l28.48,15.78a1,1,0,0,0,.49.12h.14l31.38-4.64a1,1,0,0,0,.83-.81A1,1,0,0,0,1025.53,911.33Zm-31.67,4.48-25.59-14.18,28.28-4L1022,911.65Z"></path><path class="cls-2" d="M1075,904.07l-28.3-15.66a1,1,0,0,0-.63-.11l-31.56,4.52a1,1,0,0,0-.84.81,1,1,0,0,0,.5,1l28.49,15.78a1,1,0,0,0,.48.12h.15l31.37-4.63a1,1,0,0,0,.34-1.87Zm-31.67,4.48-25.58-14.18,28.28-4,25.41,14.07Z"></path><path class="cls-1" d="M1063.05,886.37a1,1,0,0,0,.49,1L1092,903.2a1,1,0,0,0,.48.13h.15l31.37-4.64a1,1,0,0,0,.34-1.87l-28.3-15.66a1,1,0,0,0-.62-.11l-31.56,4.52A1,1,0,0,0,1063.05,886.37Zm32.35-3.3,25.41,14.06-28.11,4.16-25.58-14.18Z"></path><path class="cls-1" d="M1213.58,475.35a35.78,35.78,0,0,1,5.92,4.17c8.82,7.68,13.66,19.14,13.64,32.26-.05,26.08-19.7,50.06-43.81,53.45a36.31,36.31,0,0,1-29.39-8.38c-8.7-7.58-13.68-19.35-13.65-32.29,0-26.08,19.69-50,43.78-53.43a38,38,0,0,1,18,1.71l1.18-3.83a41.74,41.74,0,0,0-19.75-1.84c-26,3.65-47.17,29.39-47.22,57.38,0,14.1,5.45,27,15,35.31a39.69,39.69,0,0,0,26.38,9.77,45.12,45.12,0,0,0,6.2-.44c26-3.65,47.19-29.4,47.25-57.4,0-14.09-5.45-27-15-35.28a39.39,39.39,0,0,0-7.34-5.07Z"></path><path class="cls-2" d="M1208.08,472.84l-20,64.88L1171.46,508a3,3,0,1,0-5.24,2.93l20,35.88a3,3,0,0,0,2.61,1.54h.32a3,3,0,0,0,2.55-2.1l21.84-70.85,1.21-3.91,9.23-29.93a3,3,0,1,0-5.74-1.76l-9,29.26Z"></path><path class="cls-1" d="M455.39,552.69l-63.6,8.94L291.22,575.77a2,2,0,0,0-1.72,2l-.21,113.8a2,2,0,0,0,2,2l.28,0,164.16-23.08a2,2,0,0,0,1.72-2l.21-113.8a2,2,0,0,0-.68-1.51A2.05,2.05,0,0,0,455.39,552.69Zm-1.93,114L293.29,689.24l.21-109.76L453.66,557Z"></path><path class="cls-2" d="M313.27,606.6a1.36,1.36,0,0,0,.29,0l23.85-3.52a2,2,0,1,0-.58-4L313,602.62a2,2,0,0,0,.29,4Z"></path><path class="cls-2" d="M348.85,601.5l.3,0L373,598a2,2,0,0,0-.59-4l-23.85,3.52a2,2,0,0,0,.29,4Z"></path><path class="cls-2" d="M384.44,596.41l.29,0,23.85-3.53a2,2,0,0,0-.58-4l-23.85,3.53a2,2,0,0,0,.29,4Z"></path><path class="cls-2" d="M420,591.31a1.51,1.51,0,0,0,.3,0l8.27-1.22a2,2,0,0,0-.58-4l-8.28,1.23a2,2,0,0,0,.29,4Z"></path><path class="cls-2" d="M337.71,648.26l-23.85,3.52a2,2,0,0,0,.29,4l.3,0,23.85-3.52a2,2,0,0,0-.59-4Z"></path><path class="cls-2" d="M373.3,643.16l-23.85,3.53a2,2,0,0,0,.29,4l.29,0,23.85-3.53a2,2,0,0,0-.58-4Z"></path><path class="cls-2" d="M408.88,638.07,385,641.6a2,2,0,0,0,.29,4,1.51,1.51,0,0,0,.3,0L409.47,642a2,2,0,0,0-.59-4Z"></path><path class="cls-2" d="M428.89,635.28l-8.28,1.22a2,2,0,0,0,.29,4l.3,0,8.28-1.23a2,2,0,1,0-.59-4Z"></path><path class="cls-2" d="M313.27,631.37l.29,0,116.8-17.26a2,2,0,0,0-.58-4L313,627.39a2,2,0,0,0,.29,4Z"></path><path class="cls-1" d="M945.11,239.7a48.51,48.51,0,0,0-13.37,29.47c-1,11.22,1.91,21.84,8.17,29.91a32,32,0,0,0,25.55,12.78A34.73,34.73,0,0,0,976.59,310a39.92,39.92,0,0,0,15.88-10.19h0c15.73-16.18,18.08-42.83,5.25-59.39a32,32,0,0,0-25.31-12.75A33.8,33.8,0,0,0,961,229.46,40.42,40.42,0,0,0,945.11,239.7Zm27.25-8.06a28.08,28.08,0,0,1,22.2,11.2c11.66,15,9.43,39.34-4.95,54.16a35.94,35.94,0,0,1-14.3,9.19c-12.12,4.1-24.48.44-32.24-9.56-5.64-7.27-8.25-16.9-7.35-27.11a44.48,44.48,0,0,1,12.26-27,36.38,36.38,0,0,1,14.28-9.23,30.06,30.06,0,0,1,9.65-1.61Z"></path><path class="cls-2" d="M759.45,320.83l7.78,12.24-3.93,8.23a.77.77,0,0,0-.07.16l-1,2.76-13.74,1.48a2,2,0,0,0-1.78,1.81L744.12,376a2,2,0,0,0,1.76,2.17l13.28,1.5.12.68,0,.14,1.89,7.34a1.21,1.21,0,0,0,0,.18l1,2.66-9.89,12.27a2,2,0,0,0,0,2.48l15.82,20.33a2,2,0,0,0,1.38.76A2,2,0,0,0,771,426l11.31-9.87.36.23.13.08,6,3.22.22.1,2.07.81,0,15.61a2,2,0,0,0,2,2l24.87.29h0a2,2,0,0,0,2-1.67L822.65,421l.73-.23.19-.07,6.68-2.84.18-.09,2.05-1.13,9.54,9.78a2,2,0,0,0,1.43.6h0a2,2,0,0,0,1.44-.6l19.39-19.94a2,2,0,0,0,.26-2.46l-7.78-12.24,3.93-8.19.08-.18,1-2.79,13.78-1.48a2,2,0,0,0,1.77-1.81l2.53-28.49a2,2,0,0,0-1.77-2.16l-13.27-1.5-.12-.65,0-.14L862.79,337a1.42,1.42,0,0,0,0-.16l-.93-2.67,9.87-12.25a2,2,0,0,0,0-2.48l-15.58-20.09-.21-.27a2,2,0,0,0-1.39-.77,2,2,0,0,0-1.51.49L851.67,300l-10,8.7-.35-.23-.15-.09-4.86-2.66-.39-.19-.16-.07-2.9-1.17v-5.69l0-9.95a2,2,0,0,0-2-2L806,286.35h0a2,2,0,0,0-2,1.67L801.49,303l-.15.9-.78.26-.14.06L793.77,307l-.17.07-2.09,1.13-3.3-3.39-6.24-6.4a2,2,0,0,0-1.44-.6h0a2,2,0,0,0-1.43.6l-8.65,8.9L765.9,312l-6.19,6.36A2,2,0,0,0,759.45,320.83Zm30.28-8.71a2,2,0,0,0,2.38.36l.56-.32.37-.22,2.38-1.28,6.5-2.77,1.83-.62a2,2,0,0,0,1.33-1.57l2.57-15.33,21.21.21,0,15.05a2,2,0,0,0,1.32,1.88l4,1.58,5,2.71,1.5,1a2,2,0,0,0,2.46-.13l10.89-9.5,13.52,17.44L858,332.55a2.09,2.09,0,0,0-.29,2,9.47,9.47,0,0,0,.37.93l.89,2.56,1.85,7.22.33,2a2,2,0,0,0,1.76,1.69l12.83,1.46-2.2,24.9-13.39,1.44a2,2,0,0,0-1.67,1.32L857,381.9l-3.95,8.24-.39.66a2,2,0,0,0,0,2.08l7.57,11.91-16.86,17.32-9.2-9.42a2,2,0,0,0-2.56-.25c-.22.15-.45.28-.7.42l-2.4,1.32-6.49,2.76-1.86.6a2,2,0,0,0-1.34,1.57l-2.56,15.36-21.18-.25,0-15.05a2,2,0,0,0-1.37-1.89l-3.14-1.18L784.76,413l-1.47-1a2,2,0,0,0-2.47.13L770,421.62l-13.54-17.4,9.63-11.94a2,2,0,0,0,.27-2.07c-.13-.3-.23-.57-.33-.84l-.94-2.63-1.85-7.18L763,378.2l-.09-.62a2,2,0,0,0-1.75-1.71l-12.84-1.46,2.24-24.91,13.38-1.44a2,2,0,0,0,1.69-1.36l1.36-3.75,4-8.28.39-.67a2,2,0,0,0,0-2.07L763.67,320l16.87-17.33Z"></path><path class="cls-2" d="M792.34,382.23A21.87,21.87,0,0,0,809.78,391a23.93,23.93,0,0,0,7.59-1.27,27.28,27.28,0,0,0,10.78-6.92h0c10.63-10.95,12.21-29,3.52-40.19a21.83,21.83,0,0,0-17.28-8.7,23.2,23.2,0,0,0-7.78,1.24,27.25,27.25,0,0,0-10.77,6.94,32.72,32.72,0,0,0-9,19.92A28.74,28.74,0,0,0,792.34,382.23Zm6.37-37.39a23.24,23.24,0,0,1,9.18-5.94,19,19,0,0,1,6.17-1h.28A17.91,17.91,0,0,1,828.51,345c7.51,9.7,6.06,25.38-3.23,35a23.16,23.16,0,0,1-9.19,5.92,18.11,18.11,0,0,1-20.59-6.11,24.78,24.78,0,0,1-4.72-17.46A28.73,28.73,0,0,1,798.71,344.84Z"></path><path class="cls-1" d="M995.1,426.46a19.62,19.62,0,0,0-6.59,1,23.11,23.11,0,0,0-9.09,5.86,27.63,27.63,0,0,0-7.62,16.77,24.23,24.23,0,0,0,4.69,17.09,18.52,18.52,0,0,0,14.76,7.39,20.21,20.21,0,0,0,6.42-1.08,23,23,0,0,0,9.1-5.84h0c9-9.22,10.28-24.41,3-33.87A18.44,18.44,0,0,0,995.1,426.46Zm8.8,38.44a18.91,18.91,0,0,1-7.51,4.84,14.72,14.72,0,0,1-16.74-5,20.2,20.2,0,0,1-3.86-14.29,23.53,23.53,0,0,1,6.5-14.33,19.1,19.1,0,0,1,7.5-4.86,15.55,15.55,0,0,1,5-.84h.24a14.6,14.6,0,0,1,11.52,5.81C1012.72,444.21,1011.52,457.06,1003.9,464.9Z"></path><path class="cls-2" d="M504.54,235.36l.29,0,160.78-23.76a2,2,0,0,0-.58-4L504.25,231.38a2,2,0,0,0,.29,4Z"></path><path class="cls-2" d="M504.54,269.46l.29,0,160.78-23.76a2,2,0,0,0-.58-4L504.25,265.48a2,2,0,0,0,.29,4Z"></path><path class="cls-2" d="M504.54,303.56l.29,0,160.78-23.76a2,2,0,0,0-.58-4L504.25,299.58a2,2,0,0,0,.29,4Z"></path><path class="cls-1" d="M311.17,156.24c-.61,33.47,2.32,35.43,3.74,36.37a2.82,2.82,0,0,0,1.58.48,3,3,0,0,0,.92-.14c1.5-.46,5-1.53,17.08-30.94a69,69,0,0,0,13.29-.58c41-5.77,74.42-46.41,74.51-90.59,0-22.19-8.56-42.42-23.59-55.51C384.78,3.21,366.6-2,347.51.69c-41,5.76-74.39,46.38-74.48,90.55C273,120.47,287.56,145.24,311.17,156.24ZM357.24,4a58.41,58.41,0,0,1,38.83,14.35c14.16,12.33,22.25,31.46,22.22,52.48-.08,42.27-32,81.14-71.07,86.63a64.07,64.07,0,0,1-13.88.47,2,2,0,0,0-2,1.24c-8.92,21.86-13,27.8-14.48,29.4-.73-2.09-2.15-9.32-1.65-33.56a2,2,0,0,0-1.2-1.87c-22.85-10.06-37-33.78-37-61.89.08-42.26,32-81.1,71-86.6A66.52,66.52,0,0,1,357.24,4Z"></path><path class="cls-2" d="M297.45,89a12.92,12.92,0,0,0,4.22,9.85,11.26,11.26,0,0,0,7.48,2.77,13,13,0,0,0,1.75-.12c7.12-1,12.93-8,13-15.64A12.93,12.93,0,0,0,319.63,76a11.43,11.43,0,0,0-9.24-2.66C303.27,74.35,297.46,81.36,297.45,89ZM317,79a8.82,8.82,0,0,1,2.85,6.81c0,5.71-4.28,11-9.51,11.69a7.46,7.46,0,0,1-6-1.71A8.77,8.77,0,0,1,301.45,89c0-5.71,4.27-10.95,9.5-11.68A7.44,7.44,0,0,1,317,79Z"></path><path class="cls-2" d="M338.68,94.89a11.28,11.28,0,0,0,7.49,2.78,11.42,11.42,0,0,0,1.74-.13c7.13-1,12.94-8,12.95-15.64a12.88,12.88,0,0,0-4.22-9.83,11.38,11.38,0,0,0-9.24-2.66h0c-7.12,1-12.92,8-12.94,15.63A12.91,12.91,0,0,0,338.68,94.89ZM354,75.08a8.82,8.82,0,0,1,2.85,6.82c0,5.71-4.27,10.95-9.5,11.68a7.47,7.47,0,0,1-6.05-1.71,8.82,8.82,0,0,1-2.85-6.82c0-5.71,4.27-11,9.5-11.68A7.47,7.47,0,0,1,354,75.08Z"></path><path class="cls-2" d="M375.7,89.22A11.27,11.27,0,0,0,383.18,92a13,13,0,0,0,1.75-.12c7.12-1,12.93-8,12.94-15.65a12.88,12.88,0,0,0-4.22-9.83,11.37,11.37,0,0,0-9.23-2.66h0c-7.13,1-12.93,8-12.94,15.64A12.9,12.9,0,0,0,375.7,89.22ZM391,69.41a8.81,8.81,0,0,1,2.84,6.82c0,5.71-4.27,11-9.5,11.69a7.45,7.45,0,0,1-6.05-1.72,8.78,8.78,0,0,1-2.84-6.82c0-5.7,4.27-10.94,9.49-11.68A7.5,7.5,0,0,1,391,69.41Z"></path><path class="cls-1" d="M748.4,559.57c0-10.31-4-19.71-11-25.82a28.88,28.88,0,0,0-5.32-3.68l-10.44-5.68v-9.2a96,96,0,0,0-1.63-18c5-1.41,8.28-2.43,9.28-2.75a2,2,0,0,0,1.4-1.82c1.63-36.31-6.36-62.74-23.74-78.55a60.31,60.31,0,0,0-13-9l-14.51-7.89h0c-15.48-8.43-35.62-11-59.87-7.56a205.69,205.69,0,0,0-48.94,13.63,46,46,0,0,0-24.65,26l-2.38-1.11a2,2,0,0,0-1.08-.17c-2.63.32-25.93,3.65-34.92,23.6-7.85,17.41-1.78,41.1,18,70.42-16.66,4.91-29.53,22.16-29.57,40.77,0,12.91,6,23.92,16.21,29.45l15.44,8.4a2.13,2.13,0,0,0-.5.78c-.22.63-5.49,15.8-6.23,37.4-.69,20,2.58,49.31,22.07,75.67,5.12,6.93,32.35,39.72,88.55,39.72,2.68,0,5.44-.1,8.25-.25l-.12,7.86a2,2,0,0,0,2,2h0a2,2,0,0,0,2-2l.13-8.19c43-4.26,93.9-53.42,93.9-109.89,0-21.51-5.44-37.57-10.11-47.42A44.16,44.16,0,0,0,748.4,559.57ZM702.88,716.83c-18.1,19.28-40.94,31.63-61.07,33-61.19,4.24-90.28-30.7-95.49-37.74-31.89-43.15-19.42-95.25-16-107,.06-1,.12-1.54.13-1.64a2,2,0,0,1,4,.39s0,.2,0,.53l11.52.77,2.59,57.95a2,2,0,0,0,1.72,1.89,2,2,0,0,0,2.17-1.34c8.11-24.22,45-42.92,74.48-46.36,31.77-3.7,56.52,2,71.57,16.63,11.32,11,13.3,23.22,13.32,23.34a2,2,0,0,0,2,1.71,2,2,0,0,0,2-1.75l5.95-46.6a2.44,2.44,0,0,0,0-.27l-.09-17.13c4.68,8.44,12.26,25.89,12.26,50.52C733.82,669.65,722.83,695.58,702.88,716.83ZM511.31,453.24c6.43-14.27,22.36-20,31.19-21.19l8.6,4c-9.37,2.18-20.56,8.42-25.91,20.28-7.71,17.11-1.8,40.82,17.55,70.52l-2.43-1.06-8.47-4.6a2.05,2.05,0,0,0-1.24-.23l-.72.13C510.2,492.37,504,469.56,511.31,453.24Zm215.45,37.81a493,493,0,0,1-70.25,15.69c-44,6.18-72.26,1.57-81.77-13.33-.76-1.19-1.46-2.37-2.14-3.53,13.78-29.62,2.07-41.35-6-49.44l-1-1.05a42.8,42.8,0,0,1,5.14-9.67c.44-.63.89-1.23,1.36-1.83a41.25,41.25,0,0,1,16-12.33A201.54,201.54,0,0,1,636,402.21c29.88-4.19,52.85.79,68.29,14.83C720.51,431.81,728.08,456.7,726.76,491.05Zm-9.11,24.13-.18,96.52-4.6,36.11a53,53,0,0,0-11.49-16.52c-11.11-10.86-33.13-22.79-75-17.91-27.59,3.22-61.43,19.49-74.28,41.38l-2.3-51.52a2.5,2.5,0,0,0-.06-.38v-1a2,2,0,0,0-2-2l-.35,0-.55.11-.57.11a26,26,0,0,1-16.36-2.85c-.43-.24-.86-.5-1.27-.76l-.52-.34-.83-.57-.6-.45c-.2-.15-.39-.32-.59-.48l-.55-.45c-.34-.3-.67-.6-1-.91l-.18-.17c-.28-.28-.55-.57-.82-.86l-.36-.39c-.23-.26-.46-.52-.68-.79l-.48-.61-.51-.66c-.29-.41-.58-.83-.86-1.25l-.07-.11a27.74,27.74,0,0,1-1.8-3.31l0,0a31.17,31.17,0,0,1-2.32-7.44s0-.11,0-.16c-.1-.56-.18-1.13-.25-1.7,0-.14,0-.28-.05-.43-.06-.5-.1-1-.14-1.52l0-.49c0-.65-.05-1.31-.05-2A38.51,38.51,0,0,1,518.38,558,40.82,40.82,0,0,1,524,547.72c.66-.89,1.37-1.75,2.1-2.57A34.74,34.74,0,0,1,547,533.5h0c.28,0,.56-.06.84-.08l.59,0,.07,0h.09l0,0h.09a1.61,1.61,0,0,0,.33-.12h0l0,0,0,0a2.61,2.61,0,0,0,.28-.17l.09-.08,0,0s0,0,.07-.06l.12-.13,0,0,0,0,.12-.16.05-.09.12-.24,0-.09a.78.78,0,0,0,0-.14c0-.15.08-.31.12-.5.34-1.57,1.25-5.75,14.91-27.89,1.17-1.89,2.22-3.71,3.22-5.49l14.46,7.87h0s0,0,.07,0q13.82,7.5,39.27,7.52a253.14,253.14,0,0,0,34.87-2.74,489.55,489.55,0,0,0,59.08-12.42A93.93,93.93,0,0,1,717.65,515.18ZM555.49,439.31h0a6.79,6.79,0,0,0,1.53-.41,3.49,3.49,0,0,1,1.15-.27c.71,0,1.54.42,2.93,1.92.82.89,1.71,1.78,2.65,2.71,8.84,8.85,21,21-2,58.15-9.07,14.7-12.68,21.77-14.22,25.45-19.44-29.16-25.91-52.93-18.72-68.9C534.27,445.9,546.59,440.37,555.49,439.31Zm15,54.83c.14.24.28.47.43.7l-.62-.33Zm75-97-.34,0c-1.49.11-3,.25-4.52.42l-.56.06c-1.53.17-3.08.36-4.65.58a206.92,206.92,0,0,0-43.1,11.28c-2.86,1.09-4.88,1.93-5.85,2.35a46,46,0,0,0-24,24.3l-.06.16a6.31,6.31,0,0,0-4.82-1.69l-8-3.69a42.14,42.14,0,0,1,22.6-24,201.7,201.7,0,0,1,47.92-13.34,139,139,0,0,1,19.28-1.43c12.32,0,23.19,2,32.49,5.85A112.56,112.56,0,0,0,645.5,397.16ZM530.52,525l10.53,5.73c-16.45,5.09-29.1,22.2-29.13,40.65A35.59,35.59,0,0,0,517,590.22l-2.73-1.49c-8.87-4.82-14.15-14.52-14.13-25.93C500.16,544.54,513.73,527.73,530.52,525Zm191,60.64.1-54.79a24.92,24.92,0,0,1,13.15,5.92c6.23,5.42,9.64,13.51,9.63,22.79a40,40,0,0,1-18.48,33.25A62.28,62.28,0,0,0,721.52,585.64Z"></path><path class="cls-1" d="M645.72,569.44a2,2,0,0,0-1.05,2.63c8.11,18.88,4,27.95,2.6,30.24l-20.77,1.11a2,2,0,0,0,.11,4h.11l21.72-1.17a2,2,0,0,0,1.37-.64c.38-.41,9.17-10.38-1.47-35.12A2,2,0,0,0,645.72,569.44Z"></path><path class="cls-1" d="M589.35,556.38a2,2,0,0,0-1.84,2.15l.66,8.28a2,2,0,0,0,2,1.84h.16a2,2,0,0,0,1.83-2.15l-.65-8.29A2,2,0,0,0,589.35,556.38Z"></path><path class="cls-1" d="M601.29,542c-18.82-8.84-30.43,9-30.55,9.17a2,2,0,0,0,.62,2.76,2,2,0,0,0,2.76-.62c.39-.61,9.8-15.06,25.47-7.69a2,2,0,1,0,1.7-3.62Z"></path><path class="cls-1" d="M673.85,545.09a2,2,0,0,0-1.83,2.15l.65,8.29a2,2,0,0,0,2,1.84h.16a2,2,0,0,0,1.83-2.15l-.65-8.28A2,2,0,0,0,673.85,545.09Z"></path><path class="cls-1" d="M655.86,542.62a2,2,0,0,0,1.08.31,2,2,0,0,0,1.69-.93c.39-.62,9.79-15.06,25.46-7.7a2,2,0,1,0,1.7-3.62c-18.81-8.84-30.43,9-30.54,9.18A2,2,0,0,0,655.86,542.62Z"></path><path class="cls-1" d="M611.63,675l-.27-.24a30.07,30.07,0,0,1-8.89-17.92l62.81-8.82a42.1,42.1,0,0,1-9,20.21c-.67.81-1.36,1.58-2.07,2.32.33.25.67.51,1,.79a14.12,14.12,0,0,1,1.86,2c.8-.83,1.57-1.68,2.31-2.58a45.84,45.84,0,0,0,10.24-24.93,2,2,0,0,0-2.27-2.15L600,653.18a2,2,0,0,0-1.72,2.15,34.33,34.33,0,0,0,10.34,22.37l.6.54A14.58,14.58,0,0,1,611.63,675Z"></path><path class="cls-2" d="M530.88,647.08c1,16.19,7,28.35,17.69,36.16s24.78,10,36.6,10a110.45,110.45,0,0,0,23.09-2.51A14.57,14.57,0,0,0,622,700.39a14.52,14.52,0,0,0,1.86-.12l23.43-3a14.7,14.7,0,0,0,12.8-14.49v-.38h0a14.64,14.64,0,0,0-3.09-9,14.12,14.12,0,0,0-1.86-2c-.32-.28-.66-.54-1-.79a14.67,14.67,0,0,0-10.58-2.77l-23.42,3a14.71,14.71,0,0,0-10.94,7.44,14.49,14.49,0,0,0-1.87,7v.39c0,.39,0,.78.06,1.17-6.91,1.5-37.37,7-56.49-6.85-9.73-7.07-15.13-18.23-16-33.17-1.6-26-.73-39.66-.52-42.39,0-.33,0-.51,0-.53a2,2,0,0,0-4-.39c0,.1-.07.65-.13,1.64C530,609.58,529.41,623,530.88,647.08Zm89.78,27.69,23.43-3a10.2,10.2,0,0,1,1.35-.09,10.65,10.65,0,0,1,10.66,10.7v.39a10.68,10.68,0,0,1-9.31,10.53l-23.43,3a10.66,10.66,0,0,1-12-10.62v-.38A10.69,10.69,0,0,1,620.66,674.77Z"></path><path class="cls-1" d="M265.81,440.38l-48,6.75a2,2,0,0,0-1.71,2.15,25.08,25.08,0,0,0,7.55,16.34,22,22,0,0,0,15.24,6,25.36,25.36,0,0,0,3.45-.25,29.22,29.22,0,0,0,18.34-10.73,33.37,33.37,0,0,0,7.45-18.11,2,2,0,0,0-.62-1.62A2,2,0,0,0,265.81,440.38Zm-39.45,22.33a20.67,20.67,0,0,1-6.09-11.89l43.5-6.11a29.58,29.58,0,0,1-6.22,13.39,25.25,25.25,0,0,1-15.81,9.31A18.27,18.27,0,0,1,226.36,462.71Z"></path><path class="cls-1" d="M255.71,381.4A2,2,0,0,0,252,383c6.52,15.16,3.24,23.83,2.07,26.17L237.41,412a2,2,0,0,0,.33,4,1.83,1.83,0,0,0,.33,0l17.62-3a2,2,0,0,0,1.29-.8C257.28,411.71,264.36,401.54,255.71,381.4Z"></path><path class="cls-1" d="M208.24,366a2,2,0,0,0-4,.32l.54,6.71a2,2,0,0,0,2,1.85h.16a2,2,0,0,0,1.83-2.15Z"></path><path class="cls-1" d="M214.26,356.09a2,2,0,1,0,1.7-3.62c-12.45-5.85-22,2.39-25.24,7.57a2,2,0,0,0,3.37,2.15C194.4,361.7,201.92,350.29,214.26,356.09Z"></path><path class="cls-1" d="M274.61,355a2,2,0,0,0-1.84,2.15l.54,6.72a2,2,0,0,0,2,1.84h.16a2,2,0,0,0,1.83-2.15l-.53-6.72A2,2,0,0,0,274.61,355Z"></path><path class="cls-1" d="M259.24,350.9a2,2,0,0,0,3.37,2.14c.31-.48,7.83-11.9,20.17-6.1a2,2,0,1,0,1.7-3.62C272,337.47,262.52,345.72,259.24,350.9Z"></path><path class="cls-1" d="M244.25,1028.6l-3.56-17.25a2,2,0,0,0-1.56-1.55l-16-3.27a2,2,0,0,0-1.9.63l-12.47,14a2,2,0,0,0-.46,1.73l3.56,17.24a2,2,0,0,0,1.56,1.56l16,3.27a2.71,2.71,0,0,0,.4,0,2,2,0,0,0,1.49-.67l12.47-14A2,2,0,0,0,244.25,1028.6Zm-31.86-5.54,8.26-9.27.94,4.54-8.26,9.27Zm17,17.41-10.22-5.56-4.71-2.56,9.74-10.92,14.93,8.12-2.45,2.75Zm7.66-27,2.42,11.73-13.94-7.58-1.4-6.78Zm-19.91,24.91-.48-.1-1.17-.24-.13-.63Z"></path><path class="cls-1" d="M737.82,1160.16a2,2,0,0,0,.33-1.4,2,2,0,0,0-.32-.83l.19-103,515.1-72.39c9.48-1.33,17.21-10.69,17.23-20.84l.05-7.52a17.08,17.08,0,0,0-5.57-13,15.06,15.06,0,0,0-4.33-2.62,2,2,0,0,0-1-1.22l-211.78-115.2,29.37-4.13.06,0a2.23,2.23,0,0,0,.44-.13l.07,0h0a1.38,1.38,0,0,0,.25-.17,1.48,1.48,0,0,0,.21-.13,2.16,2.16,0,0,0,.37-.43v0a2.24,2.24,0,0,0,.22-.5v0c0-.06,0-.13,0-.2a1.88,1.88,0,0,0,0-.33l.13-70.91a2,2,0,0,0,1.21.42l.28,0,9.9-1.41a2,2,0,0,0-.56-4l-9.9,1.41a2,2,0,0,0-.92.39l.15-82.87c0-.05,0-.09,0-.14s0-.12,0-.17,0-.11,0-.16a1.14,1.14,0,0,0-.09-.26.85.85,0,0,0-.06-.17.06.06,0,0,0,0,0,.71.71,0,0,1-.07-.09,1.12,1.12,0,0,0-.16-.22.88.88,0,0,0-.12-.15l-.1-.09-.23-.17-.13-.1-10.75-5.84a1.94,1.94,0,0,0-1.23-.23l-67.49,9.49.22-117h.08l.23,0,9.93-1.18a2,2,0,0,0-.47-4l-9.76,1.16,0-25.83a2,2,0,0,0,1.18-1.5l2.16-13,.42-.13.19-.07,5.55-2.37.18-.08,1.48-.82,7.76,8a2,2,0,0,0,1.43.6h0a2,2,0,0,0,1.43-.6l16.14-16.58a2,2,0,0,0,.25-2.47l-6.37-10,3.19-6.64.08-.18.78-2.12,11.25-1.21a2,2,0,0,0,1.77-1.81l2.1-23.7a2,2,0,0,0-1.76-2.16l-10.79-1.22-.06-.3,0-.13-1.57-6.13c0-.06,0-.11-.05-.16l-.71-2,8.09-10.05a2,2,0,0,0,0-2.48l-13.13-16.94a2,2,0,0,0-1.39-.76,2,2,0,0,0-1.51.48l-9.22,8-.08,0a.6.6,0,0,0-.15-.09l-4.06-2.22-.33-.17-.14-.06-2.21-.89,0-12.78a2,2,0,0,0-2-2l-9.65-.09.07-36.28.73-.39,14.95,15.32a2,2,0,0,0,1.44.61h0a2,2,0,0,0,1.43-.61l29.31-30.12a2,2,0,0,0,.25-2.47l-12.07-19,0-.06.07-.13,6.1-12.69.07-.18,1.75-4.76,21.47-2.35a2,2,0,0,0,1.77-1.81l3.82-43a2,2,0,0,0-1.77-2.17l-20.8-2.35-.32-1.73,0-.13-2.86-11.14c0-.06,0-.11,0-.16l-1.43-4.11a1.08,1.08,0,0,0-.08-.19l-.1-.24,15.28-19a2,2,0,0,0,0-2.48l-23.86-30.77a2,2,0,0,0-1.39-.77,1.93,1.93,0,0,0-1.5.49l-17.7,15.44-1.18-.79-.15-.09-7.33-4-.59-.3-.15-.06-5-2-.07-24.34a2,2,0,0,0-2-2l-37.61-.38a2,2,0,0,0-2,1.67L953.6,182l-1.76.6-.14.05L941.65,187l-.16.08-3.72,2-.12.06-15-15.34a2,2,0,0,0-1.44-.6h0a2,2,0,0,0-1.43.6L890.51,203.9a2,2,0,0,0-.25,2.47l12.06,19,0,.06-.07.13-6.09,12.74a1,1,0,0,0-.07.15l-1.66,4.44-.11.33-21.42,2.3a2,2,0,0,0-1.78,1.81l-.94,10.58L702.43,281.55l.22-118.75a2,2,0,0,0-2.28-2L585,177v-7.7a2,2,0,0,0-4,0v8.27l-106.62,15a2,2,0,0,0-1.73,2L472.42,314,313.77,336.35V331.1c0-2.29-.11-4.56-.3-6.8,7.08-1.13,12.13-6.39,15-15.67,5.34-17.15,5.42-42.15-10.35-60.89a56.85,56.85,0,0,0-16.33-13.24l-.17-.11-12.81-7c-8.57-4.66-18.64-7.56-30.1-8.73a39.88,39.88,0,0,0,9.95-25.89c0-9.35-3.62-17.9-10-23.44a26.25,26.25,0,0,0-4.83-3.35l-12.71-6.91h0a27.38,27.38,0,0,0-17-2.94c-17.22,2.42-31.25,19.45-31.29,38,0,11.72,5.49,21.72,14.73,26.75l3.46,1.88C142.91,242.53,146.61,323.18,148,339a36.13,36.13,0,0,0-17.87,30.69c0,10.61,5,19.66,13.34,24.22L156,400.72l.1.06.17.09h0c.41.23.83.44,1.25.63l-.06,29.63c0,26.65,12.42,49.36,33.35,60.74l12.65,6.88-.71,365.65c0,9.15,4.29,17,11.52,20.89l17.43,9.48a2.85,2.85,0,0,0,.31.12l.53.28c-.24.09-.47.19-.69.29a1.07,1.07,0,0,0-.23.1l-.07,0a18.94,18.94,0,0,0-2.43,1.4,1.92,1.92,0,0,0-.29.18l-.18.14a19.56,19.56,0,0,0-1.73,1.36l-.15.13-.27.27c-.43.4-.84.81-1.24,1.24l-.22.23-.2.25c-.43.5-.83,1-1.17,1.49a2,2,0,0,0-.19.25l-.05.07a21,21,0,0,0-1.17,1.91c-.05.07-.1.16-.14.23a1.33,1.33,0,0,0-.13.28,22.12,22.12,0,0,0-1.13,2.49l0,.1c-.08.23-.15.47-.23.7l-.14.45c-.06.19-.12.37-.17.55s-.14.57-.21.86l-.1.44c0,.17-.08.34-.11.51-.07.4-.12.8-.18,1.28l0,.16a2.9,2.9,0,0,0-.06.41c-.06.64-.09,1.28-.09,1.88l-.06,7.52c0,6.5,3.06,12.06,8.23,14.87l18.6,10.11L228.12,967.3a42,42,0,0,0-21-2.3c-11.56,1.62-22.69,7.73-31.34,17.2-19.49,21.33-21.29,53.86-4,72.52a40.06,40.06,0,0,0,10.22,8l18.54,10.08a1.54,1.54,0,0,0,.19.08,40.55,40.55,0,0,0,19.21,4.76,44.55,44.55,0,0,0,6.16-.44c11.56-1.62,22.7-7.74,31.35-17.21,14.3-15.65,19.54-38.34,13.24-56.86l25.93-28.38,203.48,110.69h0l.09,0a14.92,14.92,0,0,0,7.1,1.78,16.29,16.29,0,0,0,2.3-.17L597,1074.78l-.19,105.16c0,6.19,2.92,11.49,7.84,14.16l9.75,5.31h0l.1,0a14.19,14.19,0,0,0,6.77,1.69,16.38,16.38,0,0,0,2.2-.15l97.9-13.76c9-1.27,16.39-10.17,16.41-19.85Zm-123.29,34.48a12.12,12.12,0,0,1-3.93-9.38v-6.51l123.21-17.36v6c0,7.76-5.83,14.89-13,15.9L622.94,1197A10.4,10.4,0,0,1,614.53,1194.64Zm-13.3-233.13c0-7.76,5.83-14.89,13-15.9l97.9-13.76a12.84,12.84,0,0,1,1.62-.11,10.29,10.29,0,0,1,5,1.24h0l.88.47-22,3.09L623.41,947a17.59,17.59,0,0,0-8.39,3.68,20.92,20.92,0,0,0-8,16.16v2.59a1.84,1.84,0,0,0,0,.62.24.24,0,0,0,0,.08l-.4,215.15c0,.59,0,1.17.08,1.74,0,.11,0,.22,0,.34,0,.48.12,1,.21,1.42,0,.08,0,.16.05.24a15.67,15.67,0,0,0,.4,1.57v0c.06.17.1.36.16.53l-1-.52c-3.61-2-5.76-5.94-5.75-10.65Zm-101.15,119a12.93,12.93,0,0,1-4.19-10l.05-7.53c0-8.25,6.2-15.82,13.78-16.89l87.38-12.28-.07,36.86-88,12.36A11.07,11.07,0,0,1,500.08,1080.56Zm-233.54-77.22c6.42,17.36,1.58,39-12,53.93-8,8.79-18.3,14.46-28.95,16-12.36,1.74-24.13-2.32-32.28-11.13-12.92-13.95-14.15-36.44-4.44-55A57.11,57.11,0,0,1,197.3,995c8-8.78,18.3-14.44,28.94-15.94a40.87,40.87,0,0,1,5.6-.39,36.94,36.94,0,0,1,14.58,2.93,2,2,0,0,0,2.27-.49L383.44,833.58a2,2,0,0,0,.38-2.09c-7.56-18.88-2.54-42.62,12.49-59.08a52.81,52.81,0,0,1,10.17-8.64,50.37,50.37,0,0,1,20.37-7.66,46.42,46.42,0,0,1,11.28-.24l-33.37,36.72a2,2,0,0,0-.48,1.72l5.52,28.74a2,2,0,0,0,1.59,1.59l26.64,5a2,2,0,0,0,1.85-.62l32.91-36.18c1.78,16.8-3.76,34.3-14.93,46.52-8.62,9.44-19.68,15.53-31.12,17.14A40.4,40.4,0,0,1,404,853.33a2,2,0,0,0-2.32.46L266.94,1001.3A2,2,0,0,0,266.54,1003.34Zm-43-88.46c0-.5,0-1,.07-1.52l0-.18.05-.37c0-.32.08-.64.13-.95,0-.1,0-.19.07-.29L224,911c.05-.21.09-.43.15-.64s.07-.23.11-.34l.18-.56c0-.15.09-.29.14-.44l0-.08a16.91,16.91,0,0,1,1-2.1c0-.07.07-.14.1-.22a1.06,1.06,0,0,0,.1-.17,19.13,19.13,0,0,1,1-1.66h0l.13-.17c.29-.41.62-.83,1-1.25l.16-.2.2-.2c.31-.34.65-.68,1-1l.18-.19.12-.1a15.18,15.18,0,0,1,1.49-1.18l.08-.06.18-.11a15.69,15.69,0,0,1,2-1.17l.15-.06a14.93,14.93,0,0,1,1.58-.61l.46-.14a12.75,12.75,0,0,1,1.79-.39l5-.71a23.13,23.13,0,0,0,2.74-.21l54.14-7.6-30.55,33.44-22-11.51a2,2,0,1,0-1.85,3.54l21.07,11-16.76,18.35-19.47-10.59c-3.85-2.09-6.15-6.33-6.14-11.33ZM161.56,403a25.16,25.16,0,0,0,8.82.72l-.06,34.41c0,1.26,0,2.51.08,3.75,0,.25,0,.49,0,.73q.09,1.64.24,3.24l0,.35c1.38,14.35,6.49,27.24,14.68,37.4C170.26,472,161.47,453,161.51,431.14Zm54.62-177.43,4.23,2.3.19.07a25.48,25.48,0,0,0,3.78,1.66l-.44.13-1.42.43-2,.62-1.38.47c-.64.22-1.26.45-1.88.68l-1.33.51c-.62.24-1.23.49-1.83.74-.42.18-.85.35-1.26.54-.61.26-1.2.53-1.8.81l-1.17.55-1.78.9-1.08.56c-.61.32-1.21.66-1.81,1l-.94.53-1.92,1.17-.72.45c-.79.51-1.57,1-2.33,1.55l-.2.14q-2.53,1.77-4.86,3.68l-.36.31c-.63.53-1.26,1.06-1.87,1.61-.19.16-.37.33-.55.5-.54.49-1.07,1-1.59,1.48-.21.19-.4.39-.6.59-.49.48-1,1-1.45,1.45-.21.21-.41.43-.61.64-.46.49-.91,1-1.35,1.47l-.59.66c-.44.5-.86,1-1.29,1.5-.18.22-.36.45-.55.67l-1.24,1.56-.5.65c-.41.54-.82,1.09-1.22,1.64-.14.21-.29.41-.43.61-.42.58-.82,1.17-1.22,1.77l-.35.51c-.43.66-.85,1.32-1.27,2L177,265a94.33,94.33,0,0,0-6.37,12.29l-.09.22c-.33.75-.64,1.5-.94,2.26-.06.13-.1.25-.15.38-.29.71-.56,1.41-.82,2.12l-.17.45c-.25.69-.5,1.38-.74,2.07-.05.16-.11.32-.16.47-.24.69-.46,1.38-.68,2.07l-.15.46c-.22.69-.44,1.39-.64,2.09,0,.14-.09.28-.13.42-.21.72-.41,1.44-.61,2.16l-.09.34q-.32,1.16-.6,2.31c0,.06,0,.11,0,.17a142.34,142.34,0,0,0-2.84,14.84v0l-.3,2.3a1.23,1.23,0,0,1,0,.19q-.14,1-.24,2.1l0,.28c-.07.67-.14,1.33-.2,2l0,.31c-.06.64-.11,1.28-.16,1.91,0,.11,0,.21,0,.31,0,.64-.1,1.26-.14,1.89,0,.09,0,.18,0,.27,0,.64-.08,1.27-.11,1.9a1.21,1.21,0,0,0,0,.19c0,.67-.07,1.32-.09,2v.07c-.13,3.4-.16,6.54-.12,9.33v0c0,.54,0,1.06,0,1.57v.2c0,.45,0,.88,0,1.3a2.71,2.71,0,0,0,0,.29c0,.38,0,.76,0,1.12,0,.12,0,.24,0,.35,0,.34,0,.68,0,1,0,.11,0,.22,0,.33,0,.31,0,.61.05.91,0,.11,0,.22,0,.33,0,.28,0,.55.05.81l0,.32c0,.08,0,.16,0,.23l-8.6-4.68C150.72,325.2,146,242.73,216.18,225.54Zm12.09-65.67a22.86,22.86,0,0,1,11,2.74h0l.48.26c-.25,0-.5,0-.75.06l-.56,0c-.49,0-1,.1-1.45.17a33.7,33.7,0,0,0-16.19,7.14c-.43.34-.85.69-1.27,1a40.11,40.11,0,0,0-13.83,29.77c0,.67,0,1.34.06,2l.06.84c0,.35.06.69.1,1s.08.76.13,1.14c0,.15.05.29.07.44a31.41,31.41,0,0,0,3.81,11l-.39-.21c-7.94-4.32-12.66-13-12.65-23.23,0-16.6,12.52-31.85,27.85-34A25.16,25.16,0,0,1,228.27,159.87Zm45.07,66-.89-.11c-.77-.08-1.55-.16-2.33-.22l-1.37-.12c-.75,0-1.49-.11-2.24-.15l-1.68-.07c-1,0-2-.08-3.07-.09s-1.78,0-2.69,0l-1.83,0-2.37.06-1.84.08-1.78.09a36,36,0,0,0,3.82-3,87.73,87.73,0,0,1,20.52,3.75C274.85,226,274.09,226,273.34,225.86Zm51.34,81.58c-2.47,7.92-6.41,12.16-12.07,12.95-12.27,1.73-29.58-12.72-37.87-21.52a2,2,0,0,0-2.25-.47L164.72,344.52c-1.49-18.76-3.74-103,74.5-114h0l1.06-.14a149.38,149.38,0,0,1,19.38-1.33c30.48,0,46.83,11,55.43,21.25C329.82,267.83,329.7,291.3,324.68,307.44Zm374-142.34-.28,152.65L607,332.33a2,2,0,0,0-1.68,1.95l-.37,36.27-31.69-34.38a2,2,0,0,0-1.47-.64l-.28,0-95.13,13.37.28-152.62Zm199,80.59.49-1.48,1.61-4.28,6-12.58.6-1a2,2,0,0,0,0-2.07l-11.87-18.68L921.26,178l14.62,15a2,2,0,0,0,2.38.37c.28-.15.54-.31.8-.47s.4-.24.61-.35l3.63-2,9.9-4.22,2.81-1a2,2,0,0,0,1.33-1.56l4-24,33.93.34,0,23.75a2,2,0,0,0,1.31,1.88l6.15,2.42,7.64,4.15,1.66,1.1.66.47a2,2,0,0,0,2.46-.13l17.27-15.07,21.59,27.85-15,18.66a2,2,0,0,0-.32,2l0,.09c.17.47.35.93.55,1.39l1.37,3.94,2.82,11,.34,1.81.18,1.23a2,2,0,0,0,1.76,1.69l20.38,2.31-3.49,39.46-21.07,2.27a2,2,0,0,0-1.67,1.32l-2.14,5.86-6,12.53-.61,1a2,2,0,0,0,0,2.08l11.87,18.67-26.78,27.52-14.63-15a2,2,0,0,0-2.56-.25c-.37.25-.74.46-1.15.69l-3.67,2-9.9,4.22-2.84.91a2,2,0,0,0-1.34,1.57l-4,24.08-33.89-.4,0-23.75a2,2,0,0,0-1.37-1.9l-1.28-.42-3.57-1.4-9-4.78-1.58-1-.71-.5a2,2,0,0,0-2.47.14l-17.22,15-21.63-27.79,15.06-18.68a2,2,0,0,0,.27-2.06c-.21-.47-.37-.92-.53-1.35l-1.44-4-2.81-10.94-.39-2.12-.14-.95a2,2,0,0,0-1.75-1.71l-20.39-2.31,3.54-39.47L896,247.05A2,2,0,0,0,897.68,245.69Zm109.13,157.62a2,2,0,0,0,1.31,1.87l3.32,1.31,4.11,2.24,1.22.82a2,2,0,0,0,2.47-.13l8.78-7.66,10.87,14-7.82,9.72a2.1,2.1,0,0,0-.29,2c.09.26.19.52.31.78l.72,2.09,1.54,6,.28,1.61a2,2,0,0,0,1.75,1.69l10.35,1.18L1044,461l-10.86,1.16a2,2,0,0,0-1.68,1.33l-1.16,3.17-3.28,6.83-.31.54a2,2,0,0,0,0,2.07l6.16,9.68-13.6,14-7.41-7.59a2,2,0,0,0-2.56-.25c-.18.12-.37.22-.56.33l-2,1.08-5.37,2.29-1.54.5a2,2,0,0,0-1.33,1.56l-2.09,12.49-17-.19,0-12.19a2,2,0,0,0-1.37-1.9l-2.58-1-4.85-2.59-1.2-.79a2,2,0,0,0-2.46.13l-8.77,7.66-10.87-14,7.83-9.73a2,2,0,0,0,.28-2.06c-.11-.24-.19-.47-.27-.68l-.78-2.17-1.53-5.95-.28-1.62a2,2,0,0,0-1.75-1.71l-10.35-1.17,1.8-20.12,10.86-1.17a2,2,0,0,0,1.69-1.36l1.13-3.1,3.28-6.86.31-.54a2,2,0,0,0,0-2.07l-6.16-9.68,13.6-14,7.41,7.59a2,2,0,0,0,2.38.36l.48-.28.29-.17,2-1.06,5.37-2.29,1.51-.51a2,2,0,0,0,1.34-1.57L989.77,391l17,.17ZM230.72,889.19c-4.16-3.63-6.45-9.06-6.44-15.29L225,505.65a64.49,64.49,0,0,0,7.78.48,67.56,67.56,0,0,0,9.35-.66A72.14,72.14,0,0,0,256.25,502l-.64,343.6a22,22,0,0,0,7.16,16.78A19,19,0,0,0,275.4,867a21.12,21.12,0,0,0,3-.21l47.68-6.7-22.58,24.72-58.93,8.28A17.06,17.06,0,0,1,230.72,889.19ZM849,764.73l-.62.21-.47.15-.48.12-.51.1-.48.07a4.16,4.16,0,0,1-.56,0l-.55,0H845l0,17.69L643,811.52l.15-9.65a2,2,0,0,0-4-.06l-.16,10a2.48,2.48,0,0,0,0,.27L465.31,836.5a65.07,65.07,0,0,0,10.83-48.45h0v0a.14.14,0,0,1,0-.06,1.88,1.88,0,0,0-.14-.42,1.09,1.09,0,0,0-.08-.15,2.75,2.75,0,0,0-.19-.28l-.12-.13a1.13,1.13,0,0,0-.27-.22.71.71,0,0,0-.14-.1l-.05,0-18.55-10.09a2,2,0,0,0-2.43.41l-35,38.49-7-1.31-3.76-19.58,35.22-38.77v0a2.09,2.09,0,0,0,.27-.39.3.3,0,0,0,0-.1,1.19,1.19,0,0,0,.08-.16,1.46,1.46,0,0,0,.05-.2l0-.1a1.78,1.78,0,0,0,0-.46.28.28,0,0,0,0-.09,1.89,1.89,0,0,0-.08-.4.13.13,0,0,0,0-.06v0a1.65,1.65,0,0,0-.21-.42s0-.05-.06-.08a1.48,1.48,0,0,0-.26-.3l-.06-.06a1.69,1.69,0,0,0-.34-.23l-18.54-10.09a2,2,0,0,0-.59-.21,50.27,50.27,0,0,0-16.21-.31,55.25,55.25,0,0,0-32.94,17.56c-15.73,17.23-21.15,42-13.7,62.09l-30.85,33.77-52.46,7.37a15.34,15.34,0,0,1-12.41-3.53c-3.74-3.25-5.79-8.14-5.78-13.75l.64-345.18c20.55-8.71,37.52-26.54,46.48-48.12a1.92,1.92,0,0,0,.95.25h.26l9.92-1.31a2,2,0,0,0-.52-4l-9.12,1.21a87.77,87.77,0,0,0,5.39-29.91l0-18.86C324.5,395.4,333,384.73,335,372.57l138.65-19.49a2,2,0,0,0,1,.12L571,339.66,605.41,377a2,2,0,0,0,1.47.64,2,2,0,0,0,2-2l.4-39.62,91.39-14.58a1.93,1.93,0,0,0,.89-.38l64.34-9,4.55-4.68-68.09,9.57,0-19.16,166.27-23.37-1.43,16a2,2,0,0,0,1.76,2.17l3.65.41-39.78,5.59v4L851.67,300l1.34-1.17a2,2,0,0,1,1.51-.49,2,2,0,0,1,1.39.77l.21.27,32.45-4.56,1.24.14.33,1.77,0,.13,2.85,11.1c0,.06,0,.12.05.17l1.48,4.12.17.45-15.31,19a2,2,0,0,0,0,2.48l23.9,30.71a2,2,0,0,0,1.39.77,2,2,0,0,0,1.5-.49l17.67-15.43,1.19.76.13.08,9.13,4.88.21.1,3.74,1.45,0,0,0,24.29a2,2,0,0,0,2,2l19.57.23,0,19.41-10.48,10.76a2,2,0,0,0-.25,2.47l6.37,10-3.19,6.68c0,.05,0,.1-.07.16l-.79,2.1-11.22,1.21a2,2,0,0,0-1.78,1.81l-2.13,23.7a2,2,0,0,0,1.77,2.16l10.79,1.22.06.32,0,.14,1.57,6.11.05.17.74,2L943.2,484a2,2,0,0,0,0,2.48l13.15,16.91a2,2,0,0,0,1.39.76,2,2,0,0,0,1.5-.49l.44-.38-.08,41.26a2,2,0,0,0-.6,0l-9.93,1.18a2,2,0,0,0,.23,4h.24l9.93-1.18.12,0-.22,117.79-112.44,15.8-.1,0a2.29,2.29,0,0,0-.37.12.77.77,0,0,0-.19.08l-.08,0a2.56,2.56,0,0,0-.26.2l-.12.1a2.48,2.48,0,0,0-.35.45s0,.08,0,.11a1.76,1.76,0,0,0-.15.44l0,.06a.66.66,0,0,0,0,.14,1.46,1.46,0,0,0,0,.22l-.11,59.65c1.38-.53,2.71-1.06,4-1.6l.1-54.69,6.75,3.67L855.84,739c1.41-.69,2.74-1.4,4-2.1l.08-42.83,23.52,19.2c.69-1.15,1.36-2.33,2-3.53l-5.36-4.38-3.18-2a2,2,0,0,1-.88-1.3l-13.27-10.83,48.44-6.81,1.59-.72a2,2,0,0,1,1.88.12,1.27,1.27,0,0,1,.12.1l157.15-22.09L967.14,776.5,903.7,724.69c-.66,1.18-1.35,2.33-2.08,3.47l35.51,29-77.48,84.54.15-81c-1.42.58-2.76,1.12-4,1.6l-.15,81.22-6.75-3.67ZM460.81,842.08c.31-.33.59-.69.89-1L845,787.18l0,21.55L642.61,837.17c0-.1,0-.2,0-.3l.15-10a2,2,0,0,0-2-2,2,2,0,0,0-2,2l-.15,10a2,2,0,0,0,.2.89l-249,35,13.82-15.13a44.77,44.77,0,0,0,23.63,2.92C439.66,858.74,451.56,852.21,460.81,842.08ZM413,818.34l6.2,1.17,7.09,3.86L413.47,821Zm10.08-1.27,33-36.28L471,788.91l-33,36.27Zm6.78-65.29-.59,0c-1,.09-2,.19-2.95.33a54.9,54.9,0,0,0-29.52,14.13q-1.77,1.63-3.42,3.43c-.47.52-.94,1-1.4,1.59-.15.17-.29.35-.44.53-.3.36-.61.73-.9,1.1-.18.21-.34.43-.51.65s-.53.67-.78,1l-.52.71c-.24.33-.48.66-.71,1l-.51.74c-.22.33-.45.66-.67,1l-.48.76-.63,1c-.16.26-.31.52-.46.78s-.4.68-.59,1l-.45.8c-.18.34-.37.68-.55,1s-.28.54-.41.81-.35.69-.52,1l-.39.82c-.17.35-.33.71-.49,1.07l-.36.81-.46,1.11c-.11.26-.22.53-.32.79s-.29.77-.44,1.15-.19.51-.28.77c-.15.41-.28.82-.42,1.23l-.24.71c-.15.46-.29.92-.43,1.38-.05.19-.11.38-.17.57-.18.64-.36,1.28-.52,1.93v0c-.17.66-.33,1.33-.47,2,0,.15-.07.31-.1.46-.11.5-.21,1-.31,1.52l-.12.68c-.07.44-.15.87-.22,1.31,0,.25-.07.51-.1.76-.06.41-.12.82-.17,1.23l-.09.81c0,.39-.09.79-.12,1.18s0,.56-.07.84,0,.77-.07,1.16,0,.56,0,.84,0,.77,0,1.15,0,.57,0,.85,0,.76,0,1.14,0,.57,0,.85,0,.76.05,1.13,0,.57,0,.85.05.76.08,1.13,0,.56.07.84.08.76.13,1.14l.09.82c.05.38.11.77.17,1.15l.12.79c.07.4.15.79.22,1.19.05.24.09.49.14.74.09.42.19.85.29,1.28.05.21.09.42.14.62.13.54.27,1.07.42,1.6,0,.1.05.2.08.29v0L365,820.74c-7.17-18.77-2.1-42.15,12.76-58.42A51.25,51.25,0,0,1,408.31,746a46.1,46.1,0,0,1,14.61.23l9.91,5.39h-.12C431.75,751.66,430.79,751.71,429.83,751.78ZM313.75,344.22a19.81,19.81,0,0,1,10,4.66c5,4.32,7.68,10.78,7.67,18.19,0,12.18-7.54,23.53-17.8,28.27Zm21.68,24.24q0-.69,0-1.38a29,29,0,0,0-5.24-17l142.17-20,0,19.16Zm676.65,392.31L997.66,749l77.48-84.79-.27,147.59ZM894.69,843.66l24.51,13.56-28.11,4.16L866.3,847.65Zm49.88-7,24,13.31-28.11,4.16-24.33-13.48Zm-81.69,7.44,77.35-84.4,25.85,21.1a1.69,1.69,0,0,0,.31.21l.1,0a1.57,1.57,0,0,0,.23.09l.12,0,.23.05h.34l.21,0,.18,0,.2-.07a.85.85,0,0,0,.17-.06l.21-.12.13-.08a1.54,1.54,0,0,0,.31-.27L995,752l77.09,62.7Zm81.7-168.39-86.27,12.12-4.84-2.63L1066,655.32l4.84,2.63Zm18.77-10,.31-165.9,4.77-4.16.09.05.14.08,5,2.68.21.1,1.52.59,0,12.76a2,2,0,0,0,2,2l17.5.21-.27,147.2ZM988.1,386.94a2,2,0,0,0-2,1.67l-2.18,13-.45.15-.15.06-5.53,2.36-.16.08-1.51.81-7.77-8a2,2,0,0,0-1.43-.6h0a2,2,0,0,0-1.43.61l-1.65,1.69,0-15.25,14,.17h0a2,2,0,0,0,2-1.67l4.1-24.59,1.71-.53.19-.07,9.32-4L995.15,387ZM869,270.28,702.4,293.7l0-8.11L869.78,262ZM472.4,326,327.05,346.45l-.63-.59a24.7,24.7,0,0,0-4.42-3.05L316.76,340,472.42,318ZM309.61,418.53c-.07,40.49-30.61,77.71-68.07,83-17.15,2.4-33.46-2.25-45.94-13.11-13.56-11.82-21.32-30.15-21.28-50.29l.07-36.74a2,2,0,0,0-.72-1.54,2,2,0,0,0-1.28-.47,1.47,1.47,0,0,0-.36,0l-.45.09-.44.08a20.72,20.72,0,0,1-13-2.26c-.36-.19-.7-.4-1-.62l-.4-.25L156,396l-.46-.33-.56-.47-.35-.29c-.25-.21-.49-.44-.73-.67-.07-.07-.15-.13-.21-.2-.22-.21-.43-.43-.63-.65l-.32-.34c-.17-.2-.35-.4-.51-.61s-.28-.35-.42-.52-.26-.33-.38-.5c-.25-.35-.5-.7-.73-1.07v0a22.57,22.57,0,0,1-1.45-2.65v0a25.22,25.22,0,0,1-1.85-5.94.68.68,0,0,0,0-.14c-.08-.44-.14-.89-.2-1.35,0-.11,0-.23,0-.34,0-.4-.07-.81-.1-1.22l0-.39c0-.52,0-1,0-1.57a30.54,30.54,0,0,1,1.52-9.44,32.11,32.11,0,0,1,12.58-16.75c.57-.38,1.15-.73,1.74-1.06l.18,0h0a2.24,2.24,0,0,0,.51-.07l.13,0,.15-.05,6.06-2.59c.65-.15,1.31-.28,2-.37h0l.64-.06.51,0a2,2,0,0,0,1.77-1.63l94.55-40.46a84.15,84.15,0,0,0,12.62,8.68l11,6c5.32,3.11,11.07,5.44,16.57,5.69.18,2.17.29,4.37.29,6.59ZM236.85,226.81a22.94,22.94,0,0,1-18.55-5.28c-5.57-4.86-8.63-12.12-8.62-20.43a35.9,35.9,0,0,1,17-30.12c.84-.5,1.69-1,2.56-1.37a28.37,28.37,0,0,1,8.25-2.52,22.92,22.92,0,0,1,18.55,5.28c5.58,4.86,8.64,12.11,8.62,20.42C264.66,209.4,252.17,224.66,236.85,226.81Zm-87,115.74,8.8,4.79A36.23,36.23,0,0,0,143,376.66a29.53,29.53,0,0,0,3.48,14.3l-1-.56c-7.07-3.85-11.28-11.58-11.26-20.7A32,32,0,0,1,149.81,342.55Zm57.7,158.2A59.52,59.52,0,0,0,221,505l-.72,368.88a25.66,25.66,0,0,0,2.55,11.46l-6.56-3.57c-5.92-3.22-9.44-9.71-9.43-17.36Zm156.33,323.9,14.92,8.12-132,144.47-8.07-4.39-6.85-3.73Zm-136,146.81,5.94,3.23q-1.19,0-2.37,0l-.71,0c-.6,0-1.2,0-1.8.08l-.73.06c-.81.06-1.63.15-2.44.26-11.57,1.63-22.7,7.74-31.35,17.21-.59.64-1.16,1.3-1.72,2l-.55.69c-.36.44-.72.89-1.07,1.34-.21.27-.41.55-.62.83s-.61.83-.9,1.25-.42.6-.62.91-.55.8-.81,1.21-.4.64-.59,1-.5.81-.74,1.22-.38.66-.56,1l-.67,1.22c-.18.34-.35.68-.52,1s-.42.82-.61,1.24-.33.68-.49,1-.37.83-.55,1.25-.3.7-.44,1.05-.33.85-.5,1.27l-.39,1-.45,1.3c-.11.35-.23.7-.34,1s-.27.9-.4,1.34-.2.68-.29,1-.24.93-.35,1.4-.17.65-.24,1c-.12.51-.22,1-.32,1.53-.06.29-.12.57-.17.85-.13.67-.23,1.34-.33,2,0,.13,0,.25-.06.38-.12.8-.21,1.59-.29,2.39,0,.24,0,.49-.06.73-.05.56-.1,1.11-.13,1.66,0,.31,0,.62,0,.92,0,.49-.05,1-.05,1.46,0,.33,0,.66,0,1s0,.92,0,1.38,0,.68,0,1,0,.89.07,1.33.06.7.09,1,.08.87.13,1.3.08.7.13,1,.12.85.19,1.28.11.68.18,1,.16.84.24,1.26.15.67.23,1,.19.83.3,1.24.17.67.27,1,.24.82.36,1.23.2.65.31,1,.28.82.43,1.22.23.63.35.94.33.82.5,1.23.25.59.38.88.39.85.6,1.27c.13.26.25.53.38.79.25.5.53,1,.8,1.47.1.18.19.36.29.53.37.65.77,1.3,1.18,1.93l.39.57c.28.41.55.82.83,1.21l-3.25-1.77a35.65,35.65,0,0,1-9.19-7.18c-15.9-17.17-14.1-47.27,4-67.1,8-8.79,18.31-14.45,28.95-15.94a39.37,39.37,0,0,1,5.6-.4A36.91,36.91,0,0,1,227.8,971.46Zm89-18.85,156.81,82a2,2,0,0,0,.93.23,2,2,0,0,0,.93-3.77l-155.88-81.5,21.62-23.67,1.39-1.52,1.13-1.24,2.12-2.32,39.72-43.49L845,812.77,844.9,841a2,2,0,0,0,1,1.76l10.74,5.84c.09,0,.18.07.27.11l.18.07a2.08,2.08,0,0,0,.5.07h0l.28,0,5.09-.72,27.4,15.18a1.05,1.05,0,0,0,.49.13H891l31.38-4.64a1,1,0,0,0,.33-1.87L898,843.2l14.89-2.1,27,14.93a1,1,0,0,0,.48.13h.15l31.37-4.64a1,1,0,0,0,.34-1.87l-24.32-13.45,14.9-2.1,3.29-.46,28.39-4,3.29-.46,43.39-6.1L1252,937.8,738.1,1010l.06-33.52,37,20.49a1,1,0,0,0,.48.12h.14l151.52-21.31a1,1,0,0,0,.84-.81,1,1,0,0,0-.5-1.05l-50-27.7a1,1,0,0,0-.62-.11L738.18,965.4l0-10.59L761,951.44a1,1,0,0,0,.34-1.86l-28.3-15.66a1,1,0,0,0-.63-.12l-3,.44-8.77-4.78a14.6,14.6,0,0,0-9.07-1.57l-70.71,9.94a2.11,2.11,0,0,0,.28-1l0-2.67,0-2,.08-5.31a2,2,0,0,0-2-2h0a2,2,0,0,0-2,2l-.09,6,0,2,0,2a2,2,0,0,0,.61,1.47l-24.08,3.38c-9,1.27-16.39,10.17-16.41,19.85v13.56l-.1,54.78-87.83,12.34-.12,0c-.43.06-.88.15-1.35.26l-.87.22-.1,0-.59.18-.1,0-.77.27c-.39.15-.78.31-1.13.47l-.21.09a16,16,0,0,0-1.46.78l-.39.25c-.23.14-.45.27-.69.43l-.09.06-.28.18-.14.12a17.57,17.57,0,0,0-1.44,1.14,2.23,2.23,0,0,0-.24.19l-.27.25-.11.1c-.17.16-.32.33-.49.5l-.35.35c-.12.13-.26.25-.38.38s-.29.33-.43.49c-.43.5-.83,1-1.23,1.56l-.15.2c-.41.6-.81,1.25-1.22,2a3.9,3.9,0,0,0-.19.35l-.07.13c-.09.18-.17.35-.25.53s-.14.27-.2.4c-.26.56-.5,1.1-.7,1.62-.09.26-.17.52-.25.77l-.14.43c-.06.18-.12.36-.17.54s-.14.58-.2.87l-.1.44-.12.5c-.07.39-.12.79-.17,1.18l0,.25c0,.1,0,.21,0,.31a.36.36,0,0,1,0,.11h0c0,.35,0,.69,0,1s0,.55,0,.83l-.05,7.53c0,.62,0,1.24.08,1.85,0,.1,0,.21,0,.31.06.53.13,1,.23,1.54,0,.08,0,.15.05.22.11.55.25,1.09.41,1.62l0,.08c.08.27.16.54.25.8L299.41,971.69Zm949.51,9.1c0,8.25-6.2,15.83-13.78,16.9L738,1050.92l.06-36.86,515.15-72.4a11.11,11.11,0,0,1,9,2.55,12.9,12.9,0,0,1,4.19,10Zm-528.17,5.71L876.9,948.14,924,974.23,775.81,995.07l-37.64-20.85Zm-55.1-9.83a2.28,2.28,0,0,0-.45,0,2,2,0,0,0-1.56,2.36l.12.54a1.42,1.42,0,0,1,0,.49A8.64,8.64,0,0,1,664,962v0a.53.53,0,0,0,0-.17.65.65,0,0,0-.05-.2.77.77,0,0,0-.07-.16l-.09-.2-.09-.13-.14-.19-.1-.09-.18-.17a.41.41,0,0,0-.11-.07,1,1,0,0,0-.22-.13l-.12-.05a1,1,0,0,0-.24-.09l-.15,0-.23,0h-.43L611,967.44v-.62c0-7.76,5.83-14.89,13-15.89l97.91-13.76h0a10.39,10.39,0,0,1,8.41,2.38,12.14,12.14,0,0,1,3.93,9.39v1.45Zm55.13-4.87a2,2,0,0,0,.08-.89c0-.11,0-.22-.08-.33v-2.56a16.25,16.25,0,0,0-5.3-12.4c-.28-.24-.57-.45-.85-.66l.32,0L757.8,949.9l-19.59,2.89ZM611,971.48l49.46-7a12.64,12.64,0,0,0,24.78-3.18l49-6.9-.37,202.92-123.21,17.36Z"></path><path class="cls-2" d="M675.35,1062.84c10.27-1.45,18.65-11.59,18.67-22.61a18.5,18.5,0,0,0-6-14.1,16.24,16.24,0,0,0-13.14-3.77c-10.27,1.45-18.64,11.59-18.66,22.61a18.48,18.48,0,0,0,6,14.1,16,16,0,0,0,10.64,3.94A17.56,17.56,0,0,0,675.35,1062.84ZM660.2,1045c0-9.11,6.84-17.48,15.22-18.66h0a13.73,13.73,0,0,1,1.91-.13,12.1,12.1,0,0,1,8,3,14.3,14.3,0,0,1,4.65,11.07c0,9.11-6.85,17.48-15.23,18.66a12.27,12.27,0,0,1-9.94-2.83A14.3,14.3,0,0,1,660.2,1045Z"></path><path class="cls-2" d="M693.73,1060.4a2,2,0,0,0-2.91.54c-4.16,6.7-10,11-16,11.87s-11.42-1.7-15.48-7.13a2,2,0,0,0-1.47-.8,2,2,0,0,0-1.57.61c-9.24,9.59-14.77,24.25-14.8,39.21,0,1.15,0,2.34.11,3.66a2,2,0,0,0,.73,1.43,2,2,0,0,0,1.26.45l.28,0,62.9-8.84a2,2,0,0,0,1.72-1.86c.08-1.34.12-2.54.12-3.68C708.67,1080.77,703.09,1067.52,693.73,1060.4Zm10.87,37.25-59.07,8.3c0-.42,0-.83,0-1.24,0-13.1,4.54-25.92,12.16-34.78,4.78,5.29,11.12,7.77,17.72,6.84s12.87-5.19,17.56-11.82c7.37,6.63,11.7,18,11.68,30.88C704.64,1096.41,704.63,1097,704.6,1097.65Z"></path><path class="cls-1" d="M108,782.85c38.62-5.43,70.1-43.7,70.17-85.31,0-20.91-8.06-40-22.24-52.33a58.54,58.54,0,0,0-10.69-7.41l-9.07-4.93h0a59.18,59.18,0,0,0-26.83-7.11v-3.47a13,13,0,0,0,3.93-1.41,2,2,0,0,0,1.68-2V607.55a1.9,1.9,0,0,0-.11-.63,3.43,3.43,0,0,0,.11-.86c0-4.47-7.66-6.47-15.26-6.47s-15.27,2-15.27,6.47a3.43,3.43,0,0,0,.11.86,2.19,2.19,0,0,0-.11.63V618.9a2,2,0,0,0,1.69,2,13.15,13.15,0,0,0,4,1.42v5.81c-34.69,9.34-61.73,45-61.8,83.58,0,26.16,12.18,48.44,32.73,59.62l9.27,5h0a59.3,59.3,0,0,0,28.52,7.14A66.66,66.66,0,0,0,108,782.85ZM94.11,628.93v-6c1.87.19,3.81.27,5.62.27s3.78-.08,5.65-.27v6c-.52.47-2.55,1.25-5.63,1.25S94.63,629.39,94.11,628.93Zm16.81-22.87c-.75.83-4.5,2.46-11.19,2.46s-10.45-1.63-11.19-2.46c.74-.84,4.49-2.47,11.19-2.47S110.17,605.22,110.92,606.06Zm-22.46,4.58a30.05,30.05,0,0,0,11.27,1.88A30,30,0,0,0,111,610.64v7c-1.15.62-5.07,1.56-11.26,1.56s-10.12-.94-11.27-1.56Zm29.81,20.15H117l-1.86,0-1.19,0c-.7,0-1.39.08-2.1.13l-1,.08c-.68.06-1.38.15-2.07.23a2,2,0,0,0,.59-1.4v-.12a56.22,56.22,0,0,1,9.39,1Zm-26.81,1.09a10.32,10.32,0,0,0,5.21,2C67.91,642.92,44.9,670,39,701.34c0,.27-.09.55-.14.82a84.19,84.19,0,0,0-1.32,14.58c0,1.2,0,2.4.08,3.6,0,.23,0,.46,0,.69.7,13.8,4.85,26.37,11.89,36.59C38.54,746.17,32.27,730,32.31,711.7,32.38,674.77,58.29,640.62,91.46,631.88ZM62.45,766c-13.3-11.58-20.9-29.55-20.87-49.3.08-39.7,30-76.2,66.73-81.36,16.82-2.36,32.81,2.2,45,12.85,13.3,11.58,20.9,29.55,20.86,49.3-.07,39.7-30,76.2-66.73,81.36C90.67,781.25,74.67,776.69,62.45,766Z"></path><path class="cls-1" d="M108.06,771.12c32.63-4.59,59.22-36.91,59.28-72,0-17.68-6.82-33.81-18.81-44.25-11.1-9.66-25.58-13.81-40.79-11.67-32.63,4.58-59.22,36.91-59.29,72.06,0,17.67,6.82,33.79,18.81,44.23a49.7,49.7,0,0,0,33,12.23A56.94,56.94,0,0,0,108.06,771.12Zm-55.61-55.9c.06-33.24,25.11-63.79,55.84-68.11a51.66,51.66,0,0,1,7.19-.51,45.8,45.8,0,0,1,30.43,11.24c11.11,9.68,17.47,24.7,17.43,41.22-.06,33.23-25.11,63.78-55.83,68.1-14.05,2-27.41-1.84-37.62-10.73C58.78,746.75,52.42,731.73,52.45,715.22Z"></path><path class="cls-1" d="M106,708.53l26.62,27.4a2,2,0,1,0,2.86-2.79l-25.67-26.43,20.15-44.85a2,2,0,1,0-3.64-1.64l-20.71,46.09A2,2,0,0,0,106,708.53Z"></path><path class="cls-1" d="M107.38,661.67a2,2,0,0,0,2-2v-8.9a2,2,0,0,0-4,0v8.9A2,2,0,0,0,107.38,661.67Z"></path><path class="cls-1" d="M107.38,762.57a2,2,0,0,0,2-2v-8.9a2,2,0,0,0-4,0v8.9A2,2,0,0,0,107.38,762.57Z"></path><path class="cls-1" d="M68,709.94l-11.23,1.54a2,2,0,0,0,.27,4h.27l11.23-1.55a2,2,0,1,0-.54-4Z"></path><path class="cls-1" d="M147.36,704.7l.27,0,11.23-1.54a2,2,0,1,0-.55-4l-11.22,1.54a2,2,0,0,0,.27,4Z"></path><path class="cls-1" d="M1002.65,1131.35l0-.14,3.15-3.8c8.25-10.39,13.37-17.9,12.26-26.19-.86-6.43-5.82-12.51-15.5-11.22a19.9,19.9,0,0,0-12.11,6.26l2.51,4a15.37,15.37,0,0,1,9-5.08c6.7-.9,9.48,3,10.09,7.58.83,6.79-3.57,13.28-13.59,25.74l-4.15,5.26.5,3.74,28.68-3.84-.67-5Z"></path><path class="cls-1" d="M1058.82,1111.67l-6.28.84-3.74-27.92-6.56.88L1026,1116.83l.53,4,20.88-2.79,1.63,12.24,5.74-.77-1.64-12.23,6.29-.84Zm-26.74,3.57,0-.13,9-16.75c1-2.24,1.81-4.32,2.84-7.13l.21,0c.18,2.37.42,4.73.74,7.08l2,15Z"></path><polygon class="cls-1" points="1062.91 1131.24 1067.54 1130.62 1080.2 1077.93 1075.5 1078.56 1062.91 1131.24"></polygon><polygon class="cls-1" points="1084.25 1079.85 1084.92 1084.9 1106.9 1081.96 1106.92 1082.1 1092.74 1124.44 1099.03 1123.6 1113.12 1080.08 1112.59 1076.07 1084.25 1079.85"></polygon><path class="cls-2" d="M853.26,656.18a2,2,0,0,0,1.23-1.7l.94-12.41.3-.05,1.14-.14,5.57-.37h1.41l5.63.41,1,.14,2.26.39,4.53,1.13.85.26c6.08,1.95,13.33,7.1,21.57,15.32a8.81,8.81,0,0,0,6.41,2.59c.26,0,.51,0,.77,0l.49-.06.45-.07.61-.14.59-.17a9.51,9.51,0,0,0,1-.37,12.4,12.4,0,0,0,7.36-10.42,10.34,10.34,0,0,0-2.51-7.79c-2.83-3.1-17.59-18.8-30.89-23.72l-1.05-.38-.33-.11-.7-.23-4.5-1.25-1-.22-1-.19-1-.18-5.12-.62-.9-.06-.26,0-.58,0-2.12-.05-2.47.05-1,0-4.62.46.87-11.47a2,2,0,0,0-3.29-1.68l-31,26.41a2,2,0,0,0-.71,1.51,2,2,0,0,0,.18.83,1.85,1.85,0,0,0,.5.68l4,3.52,23.22,19.83A2,2,0,0,0,853.26,656.18Zm.67-46.95-.71,9.23a2,2,0,0,0,.66,1.64,2,2,0,0,0,1.7.47l.59-.1,6.09-.72.9,0,2.27,0,2,0,.56,0h.24l.82.06,5.62.74.89.17,1,.21.91.22,4.2,1.26,1,.34h0c9.64,3.57,21.82,14.44,29.32,22.66a6.32,6.32,0,0,1,1.48,4.8,8.37,8.37,0,0,1-4.92,7,6.66,6.66,0,0,1-.66.24l-.36.11a3.41,3.41,0,0,1-.37.08l-.24,0-.28,0a4.88,4.88,0,0,1-4-1.4c-8.68-8.67-16.48-14.16-23.18-16.3l-.92-.28-1.83-.52-5.5-1.13L870,638l-.86-.11-5.76-.34h-1l-1.47,0-5,.42-.72.09-.91.14-1,.17a2,2,0,0,0-1.65,1.82l-.76,10.06L830.59,633l-2.23-2Z"></path><path class="cls-2" d="M855.8,762.27c1.24-.48,2.58-1,4-1.6,8.36-3.47,19.26-8.73,26.65-15.06a78.25,78.25,0,0,0,15.17-17.45c.73-1.14,1.42-2.29,2.08-3.47s1.16-2.08,1.71-3.15L914,727a2,2,0,0,0,3.07-1.75l-1.44-39.78a2,2,0,0,0-.83-1.53,1.27,1.27,0,0,0-.12-.1,2,2,0,0,0-1.88-.12l-1.59.72-34,15.43a2,2,0,0,0-1.17,1.68,1.87,1.87,0,0,0,0,.53,2,2,0,0,0,.88,1.3l3.18,2,5.75,3.67c-.12.24-.26.47-.39.71-.63,1.2-1.3,2.38-2,3.53a74.17,74.17,0,0,1-13.52,16.6,53.32,53.32,0,0,1-10.08,7c-1.26.7-2.59,1.41-4,2.1-2.1,1-4.36,2.06-6.76,3.07-1.29.54-2.62,1.07-4,1.6l-1.16.45c-.23.09-.46.18-.81.34s-.42.21-.76.4-.42.24-.66.4-.38.25-.66.46a8.3,8.3,0,0,0-.64.53c-.18.15-.35.31-.58.54l-.51.54c-.15.17-.29.34-.51.62s-.28.36-.47.64-.25.38-.38.59-.23.4-.39.71-.2.39-.34.71-.18.41-.27.66-.15.41-.25.72-.12.41-.21.76-.1.42-.15.71-.07.42-.11.71-.05.43-.08.78,0,.44,0,.71,0,.44,0,.72,0,.44.09.89c0,.14,0,.29.12.69,0,.15.07.29.17.67a5.81,5.81,0,0,0,.2.65,7.34,7.34,0,0,0,.34.83,5.9,5.9,0,0,0,.32.64c.07.13.15.26.36.61l.4.56a7.47,7.47,0,0,0,.61.7c.11.12.22.23.54.53.12.11.24.21.57.47s.4.29.61.43.26.16.53.3a4.26,4.26,0,0,0,.42.22l.45.2.51.19.51.16.46.11.46.09.61.07.48,0h.47l.55,0a4.16,4.16,0,0,0,.56,0l.48-.07.51-.1.48-.12.47-.15.62-.21C850.43,764.26,852.81,763.43,855.8,762.27Zm-9.8-.86-.33,0-.29,0h-.29l-.28,0-.33,0-.25,0-.26-.07-.3-.09-.26-.09-.25-.11-.24-.12-.3-.18-.31-.21-.33-.27c-.18-.17-.26-.24-.31-.3l-.36-.41c-.08-.1-.15-.21-.2-.28l-.21-.35-.2-.38c-.11-.25-.16-.38-.2-.5l-.12-.37c-.06-.25-.09-.35-.1-.42,0-.26-.07-.37-.08-.45,0-.29-.06-.44-.07-.58s0-.33,0-.48,0-.32,0-.45,0-.39,0-.53.05-.35.08-.49.07-.35.1-.48a4.57,4.57,0,0,1,.15-.52l.17-.52.18-.44a4.52,4.52,0,0,1,.24-.49c.11-.22.19-.36.27-.5l.26-.4.31-.43c.15-.19.25-.32.34-.42l.35-.37c.16-.15.27-.26.38-.35s.31-.26.41-.34l.45-.32.43-.26c.21-.12.36-.19.49-.25l.55-.24c12.27-4.63,21.45-9.69,27.28-15a78.3,78.3,0,0,0,17.59-23.64,2,2,0,0,0-.72-2.56L882.16,702l29.55-13.4,1.2,33L905.67,717a2,2,0,0,0-2.88.83,74.25,74.25,0,0,1-18.94,24.78c-9,7.7-25.38,14.82-36.69,18.58l-.26.08-.29.07-.3.06Z"></path><path class="cls-2" d="M824.16,712.44,814,718.24a59.5,59.5,0,0,1-5.72-23.06,44.22,44.22,0,0,1,.24-6.74c.24-2.32.65-4.88,1.21-7.6.27-1.32.57-2.65.89-4,.89-3.66,2-7.64,3.4-11.84a14.42,14.42,0,0,0,.39-1.51q0-.21.06-.39v-.08c.06-.36.1-.7.13-1.06,0-.17,0-.33,0-.53s0-.64,0-1v-.11c0-.13,0-.25,0-.38a12.38,12.38,0,0,0-.23-1.37,9.81,9.81,0,0,0-.41-1.3,3.11,3.11,0,0,0-.15-.33,7.83,7.83,0,0,0-.42-.87c-.08-.15-.17-.3-.24-.41s-.32-.49-.49-.71l-.31-.39a8.48,8.48,0,0,0-.66-.7,2.49,2.49,0,0,0-.24-.23,8,8,0,0,0-1.24-.93,10,10,0,0,0-.92-.51l-.39-.16c-.27-.11-.54-.21-.81-.29l-.5-.14a8.92,8.92,0,0,0-1-.17l-.36,0a12,12,0,0,0-1.36,0l-.62.06-.55.09-.64.14-.62.18-.53.19-.53.22-.53.25-.52.28a12.43,12.43,0,0,0-5.46,6.56c-1.64,4.49-9.79,27.69-9.54,43.38a63.68,63.68,0,0,0,6.6,28l-10.3,5.89a2,2,0,0,0,.11,3.53l32,15.6a2.09,2.09,0,0,0,.88.2,1.87,1.87,0,0,0,.83-.19,1.94,1.94,0,0,0,1.1-1.3l10.49-39.88a2,2,0,0,0-.71-2.09A2,2,0,0,0,824.16,712.44Zm-37.25,25.87,8.69-5a2,2,0,0,0,.76-2.7,59.32,59.32,0,0,1-7-27.91c-.19-11.62,4.89-29.85,9.3-41.94a8.51,8.51,0,0,1,3.68-4.45l.32-.18L803,656l.34-.15.34-.12.4-.11.34-.08.34-.06.34,0a5.4,5.4,0,0,1,.81,0l.24,0,.49.09.25.07c.15.05.3.1.54.2l.14,0c.18.09.34.19.49.28a4.81,4.81,0,0,1,.72.53l.13.14a3.19,3.19,0,0,1,.36.38,1.56,1.56,0,0,1,.16.2c.1.14.2.27.31.45l.13.22a5.51,5.51,0,0,1,.26.54,1.3,1.3,0,0,1,.08.17,5,5,0,0,1,.24.72,8.91,8.91,0,0,1,.15.92l0,.3c0,.21,0,.43,0,.62s0,.25,0,.36a6.26,6.26,0,0,1-.08.7l0,.32a7,7,0,0,1-.27,1c-1.39,4.3-2.57,8.38-3.48,12.13-.33,1.35-.64,2.73-.92,4.1-.58,2.84-1,5.53-1.27,8a48.57,48.57,0,0,0-.26,7.37A62.92,62.92,0,0,0,811.41,722a2,2,0,0,0,2.75.79l7.84-4.48-8.66,32.91Z"></path><path class="cls-1" d="M108.32,937.22a2,2,0,0,0-2-2h0a2,2,0,0,0-2,2l-.1,10a2,2,0,0,0,2,2h0a2,2,0,0,0,2-2Z"></path><path class="cls-1" d="M108.09,962.22a2,2,0,0,0-2-2h0a2,2,0,0,0-2,2l-.1,10a2,2,0,0,0,2,2h0a2,2,0,0,0,2-2Z"></path><path class="cls-1" d="M109,862.22a2,2,0,0,0-2-2h0a2,2,0,0,0-2,2l-.09,10a2,2,0,0,0,2,2h0a2,2,0,0,0,2-2Z"></path><path class="cls-1" d="M108.78,887.22a2,2,0,0,0-4,0l-.09,10a2,2,0,0,0,2,2h0a2,2,0,0,0,2-2Z"></path><path class="cls-1" d="M133.65,1035.55l-9.82,1.87a2,2,0,0,0,.37,4,1.64,1.64,0,0,0,.38,0l9.82-1.87a2,2,0,1,0-.75-3.93Z"></path><path class="cls-1" d="M109.24,837.22a2,2,0,0,0-2-2,2,2,0,0,0-2,2l-.09,10a2,2,0,0,0,2,2h0a2,2,0,0,0,2-2Z"></path><path class="cls-1" d="M109.1,1040.23l-1.74.34,0-3.36a2,2,0,0,0-2-2,2,2,0,0,0-2,2l0,5.79a2,2,0,0,0,.72,1.55,2,2,0,0,0,1.28.47,1.55,1.55,0,0,0,.37,0l4.14-.79a2,2,0,0,0-.75-3.93Z"></path><path class="cls-1" d="M109.47,812.22a2,2,0,0,0-2-2h0a2,2,0,0,0-2,2l-.09,10a2,2,0,0,0,2,2h0a2,2,0,0,0,2-2Z"></path><path class="cls-1" d="M109.7,787.22a2,2,0,0,0-2-2h0a2,2,0,0,0-2,2l-.09,10a2,2,0,0,0,2,2h0a2,2,0,0,0,2-2Z"></path><path class="cls-1" d="M108.55,912.22a2,2,0,0,0-2-2h0a2,2,0,0,0-2,2l-.09,10a2,2,0,0,0,2,2h0a2,2,0,0,0,2-2Z"></path><path class="cls-1" d="M158.21,1030.87l-9.82,1.87a2,2,0,0,0,.37,4l.38,0,9.82-1.87a2,2,0,1,0-.75-3.93Z"></path><path class="cls-1" d="M107.85,987.21a2,2,0,0,0-2-2,2,2,0,0,0-2,2l-.09,10a2,2,0,0,0,2,2h0a2,2,0,0,0,2-2Z"></path><path class="cls-1" d="M105.64,1010.19h0a2,2,0,0,0-2,2l-.09,10a2,2,0,0,0,2,2h0a2,2,0,0,0,2-2l.09-10A2,2,0,0,0,105.64,1010.19Z"></path><path class="cls-1" d="M993.45,1049a2,2,0,0,0-1.69,3.63l9.06,4.23a1.94,1.94,0,0,0,.84.19,2,2,0,0,0,.85-3.82Z"></path><path class="cls-1" d="M957.21,1032.05l-9.07-4.23a2,2,0,0,0-1.69,3.63l9.06,4.23a2.13,2.13,0,0,0,.85.18,2,2,0,0,0,.85-3.81Z"></path><path class="cls-1" d="M1025.16,1063.78l-9.06-4.23a2,2,0,0,0-1.69,3.63l9.06,4.23a2.09,2.09,0,0,0,.85.18,2,2,0,0,0,.84-3.81Z"></path><path class="cls-1" d="M979.86,1042.63l-9.06-4.23a2,2,0,1,0-1.7,3.62l9.07,4.23a1.94,1.94,0,0,0,.84.19,2,2,0,0,0,.85-3.81Z"></path><path class="cls-1" d="M1193,629.66a2,2,0,0,0-4,0v10a2,2,0,1,0,4,0Z"></path><path class="cls-1" d="M1193,654.66a2,2,0,0,0-4,0v10a2,2,0,1,0,4,0Z"></path><path class="cls-1" d="M1188.82,726.08l-9.9,1.41a2,2,0,0,0,.28,4l.28,0,9.9-1.41a2,2,0,0,0-.56-4Z"></path><path class="cls-1" d="M1193,714.66v-10a2,2,0,0,0-4,0v10a2,2,0,1,0,4,0Z"></path><path class="cls-1" d="M1193,679.66a2,2,0,0,0-4,0v10a2,2,0,1,0,4,0Z"></path><path class="cls-1" d="M1139.32,733.12l-9.9,1.41a2,2,0,0,0,.28,4l.28,0,9.9-1.41a2,2,0,0,0-.56-4Z"></path><path class="cls-1" d="M1193,579.66a2,2,0,0,0-4,0v10a2,2,0,1,0,4,0Z"></path><path class="cls-1" d="M1103,740.31a2,2,0,0,0,2,1.72l.28,0,9.9-1.41a2,2,0,0,0-.56-4l-9.9,1.41A2,2,0,0,0,1103,740.31Z"></path><path class="cls-1" d="M1164.07,729.6l-9.9,1.41a2,2,0,0,0,.28,4l.28,0,9.9-1.41a2,2,0,0,0-.56-4Z"></path><path class="cls-1" d="M1193,604.66a2,2,0,0,0-4,0v10a2,2,0,1,0,4,0Z"></path><path class="cls-1" d="M382,706.88a2,2,0,0,0-2,2v10a2,2,0,0,0,4,0v-10A2,2,0,0,0,382,706.88Z"></path><path class="cls-1" d="M382,681.88a2,2,0,0,0-2,2v10a2,2,0,0,0,4,0v-10A2,2,0,0,0,382,681.88Z"></path><path class="cls-1" d="M382,731.88a2,2,0,0,0-2,2v10a2,2,0,0,0,4,0v-10A2,2,0,0,0,382,731.88Z"></path><path class="cls-1" d="M652.57,91.77a1.32,1.32,0,0,0,.28,0l9.9-1.4a2,2,0,0,0-.56-4l-9.9,1.4a2,2,0,0,0,.28,4Z"></path><path class="cls-1" d="M583,156.33a2,2,0,0,0,2-2v-10a2,2,0,0,0-4,0v10A2,2,0,0,0,583,156.33Z"></path><path class="cls-1" d="M583,131.33a2,2,0,0,0,2-2v-10a2,2,0,0,0-4,0v10A2,2,0,0,0,583,131.33Z"></path><path class="cls-1" d="M825.85,67.29l.28,0,9.9-1.4a2,2,0,1,0-.56-4l-9.9,1.4a2,2,0,0,0,.28,4Z"></path><path class="cls-1" d="M583,106.33a2,2,0,0,0,2-2v-3l3.5-.49a2,2,0,1,0-.56-4l-5.22.73a2,2,0,0,0-1.72,2v4.73A2,2,0,0,0,583,106.33Z"></path><path class="cls-1" d="M900.11,56.79a1.32,1.32,0,0,0,.28,0l9.9-1.4a2,2,0,1,0-.56-4l-9.9,1.4a2,2,0,0,0,.28,4Z"></path><path class="cls-1" d="M875.36,60.29l.28,0,9.9-1.4a2,2,0,1,0-.56-4l-9.9,1.4a2,2,0,0,0,.28,4Z"></path><path class="cls-1" d="M850.6,63.79l.28,0,9.91-1.4a2,2,0,1,0-.56-4l-9.91,1.4a2,2,0,0,0,.28,4Z"></path><path class="cls-1" d="M924.86,53.29a1.42,1.42,0,0,0,.29,0l9.9-1.39a2,2,0,1,0-.56-4l-9.9,1.39a2,2,0,0,0,.27,4Z"></path><path class="cls-1" d="M801.09,70.78a1.42,1.42,0,0,0,.29,0l9.9-1.39a2,2,0,0,0-.56-4l-9.9,1.4a2,2,0,0,0,.27,4Z"></path><path class="cls-1" d="M751.59,77.78l.28,0,9.9-1.4a2,2,0,1,0-.56-4l-9.9,1.4a2,2,0,0,0,.28,4Z"></path><path class="cls-1" d="M776.34,74.28a1.32,1.32,0,0,0,.28,0l9.9-1.4a2,2,0,1,0-.56-4l-9.9,1.4a2,2,0,0,0,.28,4Z"></path><path class="cls-1" d="M627.82,95.27l.28,0,9.9-1.4a2,2,0,0,0-.56-4l-9.9,1.4a2,2,0,0,0,.28,4Z"></path><path class="cls-1" d="M603.06,98.77l.28,0,9.91-1.4a2,2,0,0,0-.56-4l-9.91,1.4a2,2,0,0,0,.28,4Z"></path><path class="cls-1" d="M702.08,84.78l.28,0,9.9-1.4a2,2,0,1,0-.56-4l-9.9,1.4a2,2,0,0,0,.28,4Z"></path><path class="cls-1" d="M677.32,88.27a1.42,1.42,0,0,0,.29,0l9.9-1.39a2,2,0,0,0-.56-4l-9.9,1.4a2,2,0,0,0,.27,4Z"></path><path class="cls-1" d="M726.83,81.28l.28,0,9.91-1.4a2,2,0,1,0-.56-4l-9.91,1.4a2,2,0,0,0,.28,4Z"></path><path class="cls-1" d="M949.62,49.8l.28,0,9.9-1.4a2,2,0,1,0-.56-4l-9.9,1.4a2,2,0,0,0,.28,4Z"></path><path class="cls-1" d="M976.31,140.07a2,2,0,0,0-2,2v10a2,2,0,0,0,4,0v-10A2,2,0,0,0,976.31,140.07Z"></path><path class="cls-1" d="M974.31,46.3v5.77a2,2,0,0,0,4,0V44a2,2,0,0,0-2.28-2l-1.93.27a2,2,0,0,0,.21,4Z"></path><path class="cls-1" d="M978.31,117.07a2,2,0,1,0-4,0v10a2,2,0,0,0,4,0Z"></path><path class="cls-1" d="M978.31,92.07a2,2,0,1,0-4,0v10a2,2,0,0,0,4,0Z"></path><path class="cls-1" d="M978.31,67.07a2,2,0,1,0-4,0v10a2,2,0,0,0,4,0Z"></path><path class="cls-1" d="M357.25,446h.27l9.91-1.31a2,2,0,0,0-.52-4L357,442a2,2,0,0,0,.26,4Z"></path><path class="cls-1" d="M382,552.82a2,2,0,0,0,2-2v-10a2,2,0,0,0-4,0v10A2,2,0,0,0,382,552.82Z"></path><path class="cls-1" d="M332.47,449.26l.26,0,9.91-1.31a2,2,0,1,0-.52-4l-9.91,1.3a2,2,0,0,0,.26,4Z"></path><path class="cls-1" d="M382,527.82a2,2,0,0,0,2-2v-10a2,2,0,0,0-4,0v10A2,2,0,0,0,382,527.82Z"></path><path class="cls-1" d="M382,477.82a2,2,0,0,0,2-2v-10a2,2,0,0,0-4,0v10A2,2,0,0,0,382,477.82Z"></path><path class="cls-1" d="M382,452.82a2,2,0,0,0,2-2v-10a2,2,0,0,0-4,0v10A2,2,0,0,0,382,452.82Z"></path><path class="cls-1" d="M382,502.82a2,2,0,0,0,2-2v-10a2,2,0,0,0-4,0v10A2,2,0,0,0,382,502.82Z"></path><path class="cls-1" d="M1098.24,532h.24l9.93-1.18a2,2,0,0,0-.47-4L1098,528a2,2,0,0,0,.23,4Z"></path><path class="cls-1" d="M1073.41,535l.24,0,9.93-1.18a2,2,0,0,0-.47-4l-9.93,1.18a2,2,0,0,0,.23,4Z"></path><path class="cls-1" d="M1033.46,535.7l-9.93,1.17a2,2,0,0,0,.23,4h.24l9.93-1.18a2,2,0,0,0-.47-4Z"></path><path class="cls-1" d="M1058.28,532.75l-9.93,1.18a2,2,0,0,0,.24,4h.24l9.93-1.18a2,2,0,1,0-.48-4Z"></path><path class="cls-1" d="M1123.06,529.07h.24l9.93-1.18a2,2,0,0,0-.47-4l-9.93,1.18a2,2,0,0,0,.23,4Z"></path><path class="cls-1" d="M986,543.34a2,2,0,0,0-2.22-1.75l-9.93,1.18a2,2,0,0,0,.23,4h.24l9.93-1.18A2,2,0,0,0,986,543.34Z"></path><path class="cls-1" d="M850,561.49h.24l9.93-1.18a2,2,0,0,0-.47-4l-9.93,1.18a2,2,0,0,0,.23,4Z"></path><path class="cls-1" d="M874.81,558.54h.24l9.93-1.18a2,2,0,1,0-.48-4l-9.93,1.18a2,2,0,0,0,.24,4Z"></path><path class="cls-1" d="M924.46,552.65h.24l9.93-1.18a2,2,0,0,0-.47-4l-9.93,1.18a2,2,0,0,0,.23,4Z"></path><path class="cls-1" d="M760.38,568.11l-9.93,1.18a2,2,0,0,0,.23,4l.24,0,9.93-1.17a2,2,0,0,0-.47-4Z"></path><path class="cls-1" d="M899.63,555.6l.24,0,9.93-1.18a2,2,0,0,0-.47-4l-9.93,1.18a2,2,0,0,0,.23,4Z"></path><path class="cls-1" d="M787.42,566.92a2,2,0,0,0-2.22-1.75l-9.93,1.17a2,2,0,0,0,.23,4h.24l9.93-1.18A2,2,0,0,0,787.42,566.92Z"></path><path class="cls-1" d="M825.16,564.44l.23,0,9.93-1.18a2,2,0,0,0-.47-4l-9.93,1.18a2,2,0,0,0,.24,4Z"></path><path class="cls-1" d="M800.33,567.38h.24l9.93-1.18a2,2,0,0,0-.47-4l-9.93,1.18a2,2,0,0,0,.23,4Z"></path><path class="cls-2" d="M1169,328.05a2,2,0,0,0,1.45-.62,28.94,28.94,0,0,1,7.4-5.65,2,2,0,0,0-1.87-3.54,32.87,32.87,0,0,0-8.43,6.44,2,2,0,0,0,1.45,3.37Z"></path><path class="cls-2" d="M1185.19,374.9l.26,0,.38-.05a28.65,28.65,0,0,0,9.77-3.28,2,2,0,0,0-1.92-3.51,24.78,24.78,0,0,1-8.4,2.83l-.35,0a2,2,0,0,0,.26,4Z"></path><path class="cls-2" d="M1162.07,364a23.85,23.85,0,0,0,7.68,7.61,1.87,1.87,0,0,0,1,.3,2,2,0,0,0,1-3.7,19.87,19.87,0,0,1-6.39-6.35,2,2,0,1,0-3.38,2.14Z"></path><path class="cls-2" d="M1157.8,348.62v.05a2,2,0,0,0,2,2h0a2,2,0,0,0,2-2,30.06,30.06,0,0,1,1.48-9.16,2,2,0,0,0-3.8-1.24A33.78,33.78,0,0,0,1157.8,348.62Z"></path><path class="cls-2" d="M1185.93,319.12a20.83,20.83,0,0,1,9,.66,2,2,0,0,0,.59.09,2,2,0,0,0,.58-3.91,24.68,24.68,0,0,0-10.75-.8,2,2,0,0,0,.55,4Z"></path><path class="cls-2" d="M1209,336.34a2,2,0,0,0,2,1.63l.37,0a2,2,0,0,0,1.6-2.33,27.12,27.12,0,0,0-4-10,2,2,0,1,0-3.34,2.21A23.08,23.08,0,0,1,1209,336.34Z"></path><path class="cls-2" d="M1204.47,361.4a1.93,1.93,0,0,0,1.12.35,2,2,0,0,0,1.66-.87,35.79,35.79,0,0,0,4.61-9.49,2,2,0,1,0-3.82-1.2,31.47,31.47,0,0,1-4.09,8.43A2,2,0,0,0,1204.47,361.4Z"></path><path class="cls-1" d="M1129.92,324.09a15,15,0,0,0,10,3.7,16.94,16.94,0,0,0,2.34-.16c9.63-1.35,17.48-10.86,17.5-21.19a17.34,17.34,0,0,0-5.65-13.21,15.25,15.25,0,0,0-12.34-3.54c-9.63,1.35-17.48,10.85-17.49,21.17A17.36,17.36,0,0,0,1129.92,324.09Zm12.39-30.44a13.42,13.42,0,0,1,1.77-.13,11.11,11.11,0,0,1,7.39,2.73,13.14,13.14,0,0,1,4.28,10.19c0,8.41-6.32,16.14-14.06,17.23a11.28,11.28,0,0,1-9.14-2.6,13.16,13.16,0,0,1-4.28-10.2C1128.28,302.46,1134.58,294.73,1142.31,293.65Z"></path><path class="cls-2" d="M398.25,1153.94a32.66,32.66,0,0,0-8.43,6.43,2,2,0,1,0,2.89,2.75,29.12,29.12,0,0,1,7.4-5.65,2,2,0,1,0-1.86-3.53Z"></path><path class="cls-2" d="M415.94,1203.74a24.76,24.76,0,0,1-8.41,2.83l-.32,0a2,2,0,0,0,.24,4l.24,0,.41,0a28.87,28.87,0,0,0,9.76-3.27,2,2,0,0,0-1.92-3.52Z"></path><path class="cls-2" d="M385.55,1175.15a2,2,0,1,0-3.8-1.24,33.82,33.82,0,0,0-1.68,10.43l2,0h-2a2,2,0,0,0,2,2h0a2,2,0,0,0,2-2A29.52,29.52,0,0,1,385.55,1175.15Z"></path><path class="cls-2" d="M418.4,1151.66a24.72,24.72,0,0,0-10.76-.8,2,2,0,0,0,.56,4,20.78,20.78,0,0,1,9,.66,2.06,2.06,0,0,0,.59.09,2,2,0,0,0,.59-3.91Z"></path><path class="cls-2" d="M431.19,1161.35a2,2,0,1,0-3.34,2.2,22.87,22.87,0,0,1,3.37,8.5,2,2,0,0,0,2,1.63,1.61,1.61,0,0,0,.37,0,2,2,0,0,0,1.59-2.33A27,27,0,0,0,431.19,1161.35Z"></path><path class="cls-2" d="M432.81,1184.59a2,2,0,0,0-2.51,1.31,31.77,31.77,0,0,1-4.09,8.43,2,2,0,0,0,.52,2.78,2,2,0,0,0,1.13.35,2,2,0,0,0,1.65-.87,35.55,35.55,0,0,0,4.61-9.5A2,2,0,0,0,432.81,1184.59Z"></path><path class="cls-2" d="M394.1,1203.9a20.07,20.07,0,0,1-6.39-6.35,2,2,0,1,0-3.37,2.14,23.92,23.92,0,0,0,7.66,7.62,2,2,0,1,0,2.1-3.41Z"></path><path class="cls-1" d="M376.36,1128.93a15.24,15.24,0,0,0-12.34-3.54c-9.62,1.35-17.47,10.85-17.49,21.17a17.36,17.36,0,0,0,5.65,13.23,15.1,15.1,0,0,0,10,3.7,16.69,16.69,0,0,0,2.33-.16c9.63-1.36,17.48-10.86,17.5-21.19A17.32,17.32,0,0,0,376.36,1128.93ZM364,1159.37a11.37,11.37,0,0,1-9.15-2.6,13.18,13.18,0,0,1-4.28-10.2c0-8.41,6.32-16.14,14.05-17.22h0a11.68,11.68,0,0,1,1.76-.13,11.11,11.11,0,0,1,7.39,2.72,13.16,13.16,0,0,1,4.28,10.2C378,1150.55,371.69,1158.28,364,1159.37Z"></path><path class="cls-2" d="M1287.94,1020.1l-9.89,1.46a2,2,0,0,0,.29,4l.29,0,9.89-1.46a2,2,0,0,0-.58-4Z"></path><path class="cls-2" d="M1263.21,1023.76l-9.9,1.46a2,2,0,0,0,.29,4l.3,0,9.89-1.46a2,2,0,1,0-.58-4Z"></path><path class="cls-2" d="M1303.27,1017.84l-.49.07a2,2,0,0,0,.29,4l.29,0,.5-.08a2,2,0,1,0-.59-3.95Z"></path><path class="cls-2" d="M1238.47,1027.41l-9.89,1.46a2,2,0,0,0,.29,4l.3,0,9.89-1.46a2,2,0,1,0-.59-4Z"></path><path class="cls-1" d="M1327.76,993.62a2,2,0,0,0-2.28-1.68l-74.16,11a2,2,0,0,0,.29,4,1.51,1.51,0,0,0,.3,0l74.16-11A2,2,0,0,0,1327.76,993.62Z"></path><path class="cls-2" d="M38.6,531.24a2,2,0,0,0-2.27-1.69L26.44,531a2,2,0,0,0,.29,4,1.42,1.42,0,0,0,.29,0l9.9-1.46A2,2,0,0,0,38.6,531.24Z"></path><path class="cls-2" d="M76.39,523.63l-.49.08a2,2,0,0,0,.29,4,1.51,1.51,0,0,0,.3,0l.49-.07a2,2,0,1,0-.59-4Z"></path><path class="cls-2" d="M61.06,525.9l-9.89,1.46a2,2,0,0,0,.29,4l.3,0,9.89-1.46a2,2,0,0,0-.59-4Z"></path><path class="cls-2" d="M11.6,533.21l-9.89,1.46a2,2,0,0,0,.29,4l.29,0,9.9-1.47a2,2,0,1,0-.59-3.95Z"></path><path class="cls-2" d="M722.94,1216.38l-9.89,1.46a2,2,0,0,0,.29,4l.29,0,9.89-1.46a2,2,0,1,0-.58-4Z"></path><path class="cls-2" d="M787.73,1206.81l-.49.07a2,2,0,0,0,.29,4l.3,0,.49-.08a2,2,0,1,0-.59-4Z"></path><path class="cls-2" d="M772.4,1209.07l-9.89,1.46a2,2,0,0,0,.29,4,1.42,1.42,0,0,0,.29,0L773,1213a2,2,0,0,0-.59-4Z"></path><path class="cls-2" d="M747.67,1212.73l-9.89,1.46a2,2,0,0,0,.29,4l.29,0,9.89-1.47a2,2,0,1,0-.58-4Z"></path><path class="cls-1" d="M25,512.65l74.16-11a2,2,0,0,0-.58-4l-74.16,11a2,2,0,0,0,.29,4Z"></path><path class="cls-2" d="M842.78,107.32l-9.89,1.46a2,2,0,0,0,.29,4l.29,0,9.89-1.46a2,2,0,0,0-.58-4Z"></path><path class="cls-2" d="M858.11,105.06l-.49.07a2,2,0,0,0,.29,4l.29,0,.49-.08a2,2,0,1,0-.58-4Z"></path><path class="cls-2" d="M818.05,111l-9.9,1.46a2,2,0,0,0,.3,4l.29,0,9.89-1.46a2,2,0,1,0-.58-4Z"></path><path class="cls-2" d="M781.74,118.36a2,2,0,0,0,2,1.71l.3,0,9.89-1.46a2,2,0,0,0-.58-4l-9.9,1.46A2,2,0,0,0,781.74,118.36Z"></path><path class="cls-1" d="M882.6,80.84a2,2,0,0,0-2.27-1.68l-74.17,11a2,2,0,0,0,.29,4,1.51,1.51,0,0,0,.3,0l74.16-11A2,2,0,0,0,882.6,80.84Z"></path><path class="cls-1" d="M639.67,899.83h0a2,2,0,0,0-2,2l-.15,10a2,2,0,0,0,2,2h0a2,2,0,0,0,2-2l.15-10A2,2,0,0,0,639.67,899.83Z"></path><path class="cls-1" d="M640.23,863.84h0a2,2,0,0,0,2-2l.15-10a2,2,0,0,0-4-.06l-.15,10A2,2,0,0,0,640.23,863.84Z"></path><path class="cls-1" d="M641.59,774.85h0a2,2,0,0,0-2,2l-.15,10a2,2,0,0,0,2,2h0a2,2,0,0,0,2-2l.15-10A2,2,0,0,0,641.59,774.85Z"></path><path class="cls-1" d="M637.89,886l0,.82a2,2,0,0,0,2,2h0a2,2,0,0,0,1.64-.85,1.94,1.94,0,0,0,.36-1.12l0-1,.14-9a2,2,0,0,0-4-.06l-.11,6.9Z"></path></g></g></g></svg> 